<svg width="284" height="228" viewBox="0 0 284 228" fill="none" xmlns="http://www.w3.org/2000/svg">
<g clip-path="url(#clip0_10712_7953)">
<path d="M142 215.552C181.599 215.552 213.701 209.979 213.701 203.104C213.701 196.229 181.599 190.655 142 190.655C102.401 190.655 70.2993 196.229 70.2993 203.104C70.2993 209.979 102.401 215.552 142 215.552Z" fill="#D1D3D4"/>
<path d="M193.299 91.4622C187.067 85.9588 189.232 67.6794 189.232 67.6794H121.467C121.467 67.6794 123.632 85.9588 117.4 91.4622C111.168 96.9657 98.9666 99.7174 98.9666 115.9V200.679H211.667V115.9C211.667 99.7174 199.466 96.9657 193.299 91.4622Z" fill="white"/>
<path d="M211.667 201.138H98.9665C98.7041 201.138 98.5073 200.941 98.5073 200.679V115.9C98.5073 103.321 105.986 98.5379 111.955 94.7379C113.727 93.6897 115.432 92.4448 117.072 91.1345C123.042 85.8276 121.008 67.9414 120.943 67.7448C120.943 67.6138 120.943 67.4828 121.074 67.3517C121.139 67.2862 121.271 67.2207 121.402 67.2207H189.232C189.363 67.2207 189.495 67.2862 189.56 67.3517C189.626 67.4173 189.691 67.6138 189.691 67.7448C189.691 67.9414 187.658 85.8276 193.562 91.1345C195.202 92.4448 196.907 93.6897 198.679 94.7379C204.648 98.5379 212.127 103.321 212.127 115.9V200.679C212.127 200.941 211.93 201.138 211.667 201.138ZM99.4257 200.221H211.208V115.9C211.208 103.779 204.255 99.3897 198.154 95.5241C196.317 94.4104 194.546 93.1655 192.906 91.7897C187.133 86.6138 188.314 71.2173 188.642 68.1379H121.992C122.32 71.2173 123.567 86.6138 117.728 91.7897C116.088 93.1655 114.317 94.4104 112.48 95.5241C106.379 99.3897 99.4257 103.845 99.4257 115.9V200.221Z" fill="#093F68"/>
<path d="M143.378 168.117C140.098 173.555 143.771 185.611 143.771 185.611L148.626 189.148C155.907 193.473 165.288 191.18 169.683 183.907C174.013 176.635 171.717 167.266 164.435 162.876L159.056 160.255C158.99 160.321 146.658 162.745 143.378 168.117Z" fill="#68E1FD"/>
<path d="M156.498 191.769C153.611 191.769 150.856 190.983 148.363 189.541L143.509 186.004C143.443 185.938 143.378 185.872 143.378 185.741C143.247 185.217 139.704 173.424 143.05 167.855C146.395 162.286 158.466 159.862 158.991 159.797C159.056 159.797 159.187 159.797 159.253 159.797L164.632 162.417C172.111 166.872 174.538 176.569 170.077 184.038C167.191 188.886 162.074 191.835 156.498 191.769ZM144.165 185.348L148.888 188.755C155.907 192.948 165.091 190.655 169.29 183.645C173.488 176.635 171.192 167.462 164.173 163.269L158.991 160.714C157.613 161.041 146.723 163.466 143.771 168.314C140.819 173.162 143.771 183.972 144.165 185.348Z" fill="#093F68"/>
<path d="M153.152 189.345C161.63 189.345 168.503 182.481 168.503 174.014C168.503 165.547 161.63 158.683 153.152 158.683C144.674 158.683 137.802 165.547 137.802 174.014C137.802 182.481 144.674 189.345 153.152 189.345Z" fill="#68E1FD"/>
<path d="M153.152 189.803C144.427 189.803 137.343 182.728 137.343 174.014C137.343 165.3 144.427 158.224 153.152 158.224C161.877 158.224 168.962 165.3 168.962 174.014C168.962 176.897 168.175 179.648 166.731 182.138C163.845 186.921 158.728 189.803 153.152 189.803ZM153.218 159.141C145.018 159.141 138.327 165.759 138.327 173.948C138.327 182.138 144.952 188.821 153.152 188.821C161.352 188.821 168.043 182.203 168.043 174.014C168.043 168.772 165.288 163.924 160.827 161.238C158.531 159.928 155.907 159.207 153.218 159.141Z" fill="#093F68"/>
<path d="M144.559 167.004L146.461 168.183C146.527 168.248 146.658 168.248 146.723 168.183C147.445 167.331 148.429 166.741 149.413 166.348C150.528 165.955 151.709 165.955 152.824 166.414C153.152 166.545 153.415 166.676 153.743 166.807L151.971 169.755C151.512 169.493 150.987 169.362 150.463 169.428C150.069 169.559 149.675 169.69 149.282 169.821V169.886L152.955 172.114L153.218 171.852C153.874 171.131 154.595 170.541 155.383 169.952C156.563 169.1 158.072 168.969 159.384 169.624C160.631 170.148 161.615 171.066 162.139 172.31C162.599 173.293 162.664 174.407 162.467 175.455C162.336 176.11 162.139 176.766 161.943 177.421L163.386 178.273L161.746 180.959L160.303 180.107C159.843 180.566 159.384 181.024 158.925 181.417C158.007 182.204 156.826 182.662 155.645 182.728C154.595 182.728 153.546 182.466 152.693 181.942L154.464 179.059C155.514 179.648 156.826 179.452 157.679 178.6L153.743 176.241C153.218 176.7 152.759 177.159 152.299 177.617C151.709 178.141 150.987 178.6 150.266 178.797C149.479 178.993 148.626 178.928 147.839 178.666C146.92 178.338 146.067 177.748 145.411 176.962C144.493 175.848 144.099 174.341 144.427 172.9C144.559 172.31 144.755 171.786 144.952 171.197C144.952 171.131 145.018 171.066 145.018 171L143.05 169.821L144.559 167.004ZM159.319 175.914C159.515 175.455 159.581 174.866 159.515 174.341C159.319 173.424 158.531 172.769 157.613 172.835C156.957 173.031 156.432 173.359 155.973 173.817L159.319 175.914ZM147.445 172.442C147.379 172.9 147.379 173.359 147.379 173.817C147.445 174.735 148.298 175.455 149.216 175.39C149.282 175.39 149.413 175.39 149.479 175.324C149.938 175.128 150.397 174.8 150.791 174.407L147.445 172.442Z" fill="white"/>
<path d="M153.021 83.7967C148.888 88.645 150.528 101.093 150.528 101.093L154.727 105.352C161.155 110.855 170.864 110.069 176.309 103.648C181.819 97.2277 181.032 87.5312 174.603 82.0933L169.749 78.6208C169.749 78.6208 157.088 78.9484 153.021 83.7967Z" fill="#68E1FD"/>
<path d="M164.632 109.479C160.893 109.479 157.219 108.169 154.399 105.679L150.2 101.355C150.135 101.29 150.069 101.224 150.069 101.093C150.003 100.569 148.495 88.3174 152.693 83.4036C156.891 78.4898 169.224 78.0967 169.749 78.0967C169.88 78.0967 169.946 78.1622 170.011 78.1622L174.866 81.6346C181.491 87.2691 182.344 97.2277 176.703 103.845C173.685 107.448 169.29 109.479 164.632 109.479ZM150.922 100.897L154.989 105.024C161.287 110.331 170.667 109.545 175.981 103.255C181.229 97.0312 180.507 87.7277 174.341 82.4208L169.618 79.0794C168.175 79.145 157.088 79.7346 153.349 84.0588C149.61 88.3829 150.791 99.4553 150.922 100.897Z" fill="#093F68"/>
<path d="M161.68 106.531C170.158 106.531 177.031 99.6673 177.031 91.2002C177.031 82.7331 170.158 75.8691 161.68 75.8691C153.202 75.8691 146.33 82.7331 146.33 91.2002C146.33 99.6673 153.202 106.531 161.68 106.531Z" fill="#68E1FD"/>
<path d="M161.68 106.924C152.955 106.924 145.871 99.8484 145.871 91.1346C145.871 82.4208 152.955 75.345 161.68 75.345C165.419 75.345 169.093 76.7208 171.979 79.145C178.605 84.7795 179.392 94.7381 173.751 101.355C170.667 104.959 166.272 106.99 161.68 106.924ZM161.68 76.3277C153.48 76.3277 146.789 82.945 146.789 91.1346C146.789 99.3243 153.415 106.007 161.615 106.007C169.815 106.007 176.506 99.3898 176.506 91.2001C176.506 86.876 174.603 82.7484 171.323 79.9312C168.634 77.6381 165.223 76.3277 161.68 76.3277Z" fill="#093F68"/>
<path d="M154.399 82.8794C154.989 83.338 155.514 83.8622 156.104 84.3208C156.17 84.3863 156.301 84.3863 156.367 84.3208C157.219 83.6001 158.269 83.1415 159.384 82.9449C160.565 82.7484 161.746 83.0104 162.73 83.6001C162.992 83.7311 163.255 83.9277 163.517 84.1242L161.287 86.7449C160.893 86.4173 160.368 86.2208 159.843 86.2208C159.45 86.2863 159.056 86.2863 158.597 86.4173V86.4828L161.877 89.3001C161.943 89.2346 162.074 89.169 162.205 89.038C162.927 88.4484 163.779 87.9242 164.632 87.5311C165.944 86.876 167.453 87.007 168.634 87.8587C170.733 89.1691 171.651 91.8553 170.667 94.1484C170.405 94.8035 170.077 95.3932 169.815 96.0484L171.061 97.1622L169.027 99.5863L167.715 98.4725C167.191 98.8656 166.666 99.1932 166.141 99.5208C165.091 100.176 163.911 100.438 162.664 100.307C161.615 100.176 160.696 99.7173 159.909 98.9966L162.139 96.4415C163.123 97.2277 164.435 97.2277 165.419 96.507L161.877 93.4932C161.287 93.8863 160.762 94.2139 160.171 94.607C159.515 95.0656 158.728 95.3277 157.941 95.4587C157.154 95.5242 156.301 95.3277 155.579 94.8691C154.727 94.4104 153.939 93.6897 153.48 92.7725C152.759 91.4622 152.627 89.9553 153.152 88.5794C153.415 88.0553 153.611 87.5311 153.939 87.007C153.939 86.9415 154.005 86.8759 154.071 86.8104L152.299 85.3035L154.399 82.8794ZM167.519 94.0173C167.781 93.5587 167.978 93.0346 167.978 92.5104C167.978 91.5932 167.256 90.807 166.338 90.7415C165.682 90.807 165.026 91.0691 164.501 91.4622L167.519 94.0173ZM156.367 88.7104C156.235 89.169 156.104 89.5621 156.039 90.0208C155.973 90.938 156.629 91.7897 157.613 91.8553C157.679 91.8553 157.81 91.8553 157.875 91.8553C158.4 91.7242 158.859 91.5277 159.253 91.2001L156.367 88.7104Z" fill="white"/>
<path d="M113.267 62.176V74.5588C113.267 79.6691 132.095 83.8622 155.317 83.8622C178.539 83.8622 197.367 79.6691 197.367 74.5588V62.176H113.267Z" fill="white"/>
<path d="M155.317 84.3862C134.39 84.3862 112.808 80.7172 112.808 74.6241V62.2413C112.808 61.9793 113.005 61.7827 113.267 61.7827H197.367C197.629 61.7827 197.826 61.9793 197.826 62.2413V74.6241C197.891 80.7172 176.243 84.3862 155.317 84.3862ZM113.727 62.6344V74.5586C113.727 78.8172 130.454 83.4034 155.317 83.4034C180.179 83.4034 196.907 78.8172 196.907 74.5586V62.6344H113.727Z" fill="#093F68"/>
<path d="M155.317 71.4795C178.54 71.4795 197.367 67.3142 197.367 62.176C197.367 57.0379 178.54 52.8726 155.317 52.8726C132.094 52.8726 113.267 57.0379 113.267 62.176C113.267 67.3142 132.094 71.4795 155.317 71.4795Z" fill="white"/>
<path d="M155.317 71.938C134.39 71.938 112.808 68.269 112.808 62.1759C112.808 56.0828 134.456 52.4138 155.317 52.4138C176.178 52.4138 197.826 56.0828 197.826 62.1759C197.826 68.269 176.243 71.938 155.317 71.938ZM155.317 53.3311C130.454 53.3311 113.727 57.9173 113.727 62.1759C113.727 66.4345 130.454 71.0207 155.317 71.0207C180.179 71.0207 196.907 66.4345 196.907 62.1759C196.907 57.9173 180.245 53.3311 155.317 53.3311Z" fill="#093F68"/>
<path d="M155.317 213.128C186.438 213.128 211.667 207.554 211.667 200.679C211.667 193.804 186.438 188.231 155.317 188.231C124.195 188.231 98.9666 193.804 98.9666 200.679C98.9666 207.554 124.195 213.128 155.317 213.128Z" fill="white"/>
<path d="M155.317 213.586C123.435 213.586 98.5073 207.952 98.5073 200.679C98.5073 193.407 123.435 187.772 155.317 187.772C187.199 187.772 212.127 193.407 212.127 200.679C212.127 207.952 187.199 213.586 155.317 213.586ZM155.317 188.69C128.355 188.69 99.4257 193.538 99.4257 200.679C99.4257 207.821 128.29 212.669 155.317 212.669C182.344 212.669 211.208 207.821 211.208 200.679C211.208 193.538 182.344 188.69 155.317 188.69Z" fill="#093F68"/>
<path d="M105.789 190.131C105.527 190.131 105.33 189.935 105.33 189.673V113.476C105.33 108.497 111.89 103.583 117.728 99.3243C121.205 96.7691 124.485 94.3449 125.01 92.707C125.863 89.8243 126.387 86.876 126.519 83.8622C126.519 83.6001 126.715 83.4036 126.912 83.4036H126.978C127.24 83.4036 127.437 83.6001 127.437 83.8622C127.24 86.9415 126.715 89.9553 125.863 92.9036C125.272 94.8036 121.992 97.2277 118.253 100.045C112.874 103.976 106.248 108.89 106.248 113.476V189.673C106.183 189.935 105.986 190.131 105.789 190.131Z" fill="#D1D3D4"/>
<path d="M204.91 190.131C204.648 190.131 204.451 189.935 204.451 189.673V113.476C204.451 108.955 197.76 104.041 192.446 100.045C188.642 97.2932 185.427 94.8691 184.837 92.9036C183.984 89.9553 183.459 86.9415 183.262 83.8622C183.262 83.6001 183.459 83.4036 183.722 83.4036C183.984 83.4036 184.181 83.6001 184.181 83.8622C184.378 86.876 184.902 89.8243 185.69 92.707C186.214 94.3449 189.494 96.7691 192.971 99.3243C198.81 103.583 205.37 108.497 205.37 113.476V189.607C205.37 189.935 205.173 190.131 204.91 190.131Z" fill="#D1D3D4"/>
<path d="M113.464 187.576V195.438C113.464 198.386 120.746 200.81 129.733 200.81C138.72 200.81 146.002 198.386 146.002 195.438V187.576H113.464Z" fill="#68E1FD"/>
<path d="M129.799 201.335C121.533 201.335 113.071 199.173 113.071 195.504V187.641C113.071 187.379 113.267 187.183 113.53 187.183H146.133C146.395 187.183 146.592 187.379 146.592 187.641V195.504C146.527 199.107 137.999 201.335 129.799 201.335ZM113.923 188.035V195.438C113.923 197.797 120.287 200.352 129.733 200.352C139.179 200.352 145.543 197.797 145.543 195.438V188.035H113.923Z" fill="#093F68"/>
<path d="M129.799 192.948C138.784 192.948 146.067 190.543 146.067 187.576C146.067 184.609 138.784 182.204 129.799 182.204C120.814 182.204 113.53 184.609 113.53 187.576C113.53 190.543 120.814 192.948 129.799 192.948Z" fill="#093F68"/>
<path d="M129.799 193.407C121.533 193.407 113.071 191.179 113.071 187.576C113.071 183.973 121.599 181.679 129.799 181.679C137.999 181.679 146.527 183.907 146.527 187.576C146.527 191.245 137.999 193.407 129.799 193.407ZM129.799 182.662C120.352 182.662 113.989 185.217 113.989 187.576C113.989 189.935 120.352 192.49 129.799 192.49C139.245 192.49 145.608 189.935 145.608 187.576C145.608 185.217 139.245 182.662 129.799 182.662Z" fill="#093F68"/>
<path d="M117.334 176.766V184.628C117.334 187.576 124.616 190 133.603 190C142.59 190 149.872 187.576 149.872 184.628V176.766H117.334Z" fill="#68E1FD"/>
<path d="M133.603 190.524C125.338 190.524 116.875 188.362 116.875 184.693V176.831C116.875 176.569 117.072 176.373 117.334 176.373H149.938C150.2 176.373 150.397 176.569 150.397 176.831V184.693C150.397 188.362 141.869 190.524 133.603 190.524ZM117.794 177.224V184.628C117.794 186.986 124.157 189.542 133.603 189.542C143.05 189.542 149.413 186.986 149.413 184.628V177.224H117.794Z" fill="#093F68"/>
<path d="M133.603 182.138C142.588 182.138 149.872 179.733 149.872 176.765C149.872 173.798 142.588 171.393 133.603 171.393C124.618 171.393 117.334 173.798 117.334 176.765C117.334 179.733 124.618 182.138 133.603 182.138Z" fill="#093F68"/>
<path d="M133.603 182.662C125.338 182.662 116.875 180.5 116.875 176.831C116.875 173.162 125.403 171 133.603 171C141.803 171 150.331 173.162 150.331 176.831C150.331 180.5 141.869 182.662 133.603 182.662ZM133.603 171.852C124.157 171.852 117.794 174.407 117.794 176.766C117.794 179.124 124.157 181.679 133.603 181.679C143.05 181.679 149.413 179.124 149.413 176.766C149.413 174.407 143.05 171.852 133.603 171.852Z" fill="#093F68"/>
<path d="M113.989 164.776V172.638C113.989 175.586 121.271 178.01 130.258 178.01C139.245 178.01 146.592 175.586 146.592 172.638V164.776H113.989Z" fill="#68E1FD"/>
<path d="M130.258 178.469C121.992 178.469 113.53 176.307 113.53 172.638V164.776C113.53 164.514 113.727 164.317 113.989 164.317H146.592C146.855 164.317 147.051 164.514 147.051 164.776V172.638C147.051 176.307 138.523 178.469 130.258 178.469ZM114.448 165.169V172.573C114.448 174.931 120.811 177.486 130.258 177.486C139.704 177.486 146.067 174.931 146.067 172.573V165.169H114.448Z" fill="#093F68"/>
<path d="M130.258 170.148C139.243 170.148 146.527 167.743 146.527 164.776C146.527 161.809 139.243 159.404 130.258 159.404C121.273 159.404 113.989 161.809 113.989 164.776C113.989 167.743 121.273 170.148 130.258 170.148Z" fill="#093F68"/>
<path d="M130.258 170.607C121.992 170.607 113.53 168.379 113.53 164.776C113.53 161.172 122.058 158.879 130.258 158.879C138.458 158.879 146.986 161.107 146.986 164.776C146.986 168.445 138.523 170.607 130.258 170.607ZM130.258 159.797C120.811 159.797 114.448 162.352 114.448 164.71C114.448 167.069 120.811 169.624 130.258 169.624C139.704 169.624 146.067 167.069 146.067 164.71C146.067 162.352 139.77 159.797 130.258 159.797Z" fill="#093F68"/>
<path d="M156.366 186.2V194.062C156.366 197.011 163.648 199.435 172.635 199.435C181.622 199.435 188.904 197.011 188.904 194.062V186.2H156.366Z" fill="#68E1FD"/>
<path d="M172.701 199.959C164.501 199.959 155.973 197.797 155.973 194.128V186.265C155.973 186.003 156.17 185.807 156.432 185.807H189.035C189.298 185.807 189.495 186.003 189.495 186.265V194.128C189.429 197.731 180.901 199.959 172.701 199.959ZM156.826 186.659V194.062C156.826 196.421 163.189 198.976 172.635 198.976C182.082 198.976 188.445 196.421 188.445 194.062V186.659H156.826Z" fill="#093F68"/>
<path d="M172.701 191.572C181.686 191.572 188.97 189.167 188.97 186.2C188.97 183.233 181.686 180.828 172.701 180.828C163.716 180.828 156.432 183.233 156.432 186.2C156.432 189.167 163.716 191.572 172.701 191.572Z" fill="#093F68"/>
<path d="M172.701 192.097C164.501 192.097 155.973 189.869 155.973 186.2C155.973 182.531 164.501 180.369 172.701 180.369C180.901 180.369 189.429 182.597 189.429 186.2C189.429 189.804 180.901 192.097 172.701 192.097ZM172.701 181.286C163.255 181.286 156.891 183.842 156.891 186.2C156.891 188.559 163.255 191.114 172.701 191.114C182.147 191.114 188.511 188.559 188.511 186.2C188.511 183.842 182.147 181.286 172.701 181.286Z" fill="#093F68"/>
<path d="M154.267 176.897V184.759C154.267 187.773 161.549 190.131 170.536 190.131C179.523 190.131 186.805 187.707 186.805 184.759V176.897H154.267Z" fill="#68E1FD"/>
<path d="M170.536 190.59C162.336 190.59 153.808 188.362 153.808 184.759V176.897C153.808 176.635 154.005 176.438 154.267 176.438H186.87C187.133 176.438 187.33 176.635 187.33 176.897V184.759C187.33 188.428 178.802 190.59 170.536 190.59ZM154.727 177.355V184.759C154.727 187.117 161.09 189.672 170.536 189.672C179.983 189.672 186.346 187.117 186.346 184.759V177.355H154.727Z" fill="#093F68"/>
<path d="M170.536 182.269C179.521 182.269 186.805 179.864 186.805 176.897C186.805 173.929 179.521 171.524 170.536 171.524C161.551 171.524 154.267 173.929 154.267 176.897C154.267 179.864 161.551 182.269 170.536 182.269Z" fill="#093F68"/>
<path d="M170.536 182.728C162.336 182.728 153.808 180.566 153.808 176.897C153.808 173.228 162.336 171 170.536 171C178.736 171 187.264 173.162 187.264 176.831C187.264 180.5 178.802 182.728 170.536 182.728ZM170.536 171.917C161.09 171.917 154.727 174.472 154.727 176.831C154.727 179.19 161.09 181.745 170.536 181.745C179.983 181.745 186.346 179.19 186.346 176.831C186.346 174.472 180.048 171.917 170.536 171.917Z" fill="#093F68"/>
<path d="M156.891 165.497V173.359C156.891 176.307 164.173 178.731 173.16 178.731C182.147 178.731 189.429 176.307 189.429 173.359V165.497H156.891Z" fill="#68E1FD"/>
<path d="M173.16 179.255C164.96 179.255 156.432 177.093 156.432 173.424V165.562C156.432 165.3 156.629 165.104 156.891 165.104H189.495C189.757 165.104 189.954 165.3 189.954 165.562V173.424C189.954 177.028 181.426 179.255 173.16 179.255ZM157.351 165.955V173.359C157.351 175.717 163.714 178.272 173.16 178.272C182.607 178.272 188.97 175.717 188.97 173.359V165.955H157.351Z" fill="#093F68"/>
<path d="M173.16 170.869C182.145 170.869 189.429 168.464 189.429 165.497C189.429 162.53 182.145 160.124 173.16 160.124C164.175 160.124 156.891 162.53 156.891 165.497C156.891 168.464 164.175 170.869 173.16 170.869Z" fill="#093F68"/>
<path d="M173.16 171.328C164.96 171.328 156.432 169.1 156.432 165.431C156.432 161.762 164.96 159.6 173.16 159.6C181.36 159.6 189.888 161.828 189.888 165.431C189.888 169.035 181.426 171.328 173.16 171.328ZM173.16 160.583C163.714 160.583 157.351 163.138 157.351 165.497C157.351 167.855 163.714 170.41 173.16 170.41C182.607 170.41 188.97 167.855 188.97 165.497C188.97 163.138 182.672 160.517 173.16 160.583Z" fill="#093F68"/>
<path d="M154.267 154.097V161.959C154.267 164.907 161.549 167.331 170.536 167.331C179.523 167.331 186.805 164.907 186.805 161.959V154.097H154.267Z" fill="#68E1FD"/>
<path d="M170.536 167.79C162.271 167.79 153.808 165.628 153.808 161.959V154.097C153.808 153.834 154.005 153.638 154.267 153.638H186.87C187.133 153.638 187.33 153.834 187.33 154.097V161.959C187.33 165.628 178.802 167.79 170.536 167.79ZM154.727 154.555V161.959C154.727 164.317 161.09 166.872 170.536 166.872C179.983 166.872 186.346 164.317 186.346 161.959V154.555H154.727Z" fill="#093F68"/>
<path d="M170.536 159.469C179.521 159.469 186.805 157.064 186.805 154.097C186.805 151.129 179.521 148.724 170.536 148.724C161.551 148.724 154.267 151.129 154.267 154.097C154.267 157.064 161.551 159.469 170.536 159.469Z" fill="#093F68"/>
<path d="M170.536 159.928C162.271 159.928 153.808 157.7 153.808 154.031C153.808 150.362 162.336 148.2 170.536 148.2C178.736 148.2 187.264 150.428 187.264 154.031C187.264 157.635 178.802 159.928 170.536 159.928ZM170.536 149.117C161.09 149.117 154.727 151.673 154.727 154.031C154.727 156.39 161.09 158.945 170.536 158.945C179.983 158.945 186.346 156.39 186.346 154.031C186.346 151.673 180.048 149.117 170.536 149.117Z" fill="#093F68"/>
<path d="M159.515 144.728V152.59C159.515 155.538 166.797 157.962 175.85 157.962C184.903 157.962 192.119 155.538 192.119 152.59V144.728H159.515Z" fill="#68E1FD"/>
<path d="M175.784 158.486C167.519 158.486 159.056 156.259 159.056 152.655V144.793C159.056 144.531 159.253 144.334 159.515 144.334H192.119C192.381 144.334 192.578 144.531 192.578 144.793V152.655C192.578 156.259 184.05 158.486 175.784 158.486ZM159.975 145.186V152.59C159.975 154.948 166.338 157.503 175.784 157.503C185.231 157.503 191.594 154.948 191.594 152.59V145.186H159.975Z" fill="#093F68"/>
<path d="M175.784 150.1C184.769 150.1 192.053 147.695 192.053 144.728C192.053 141.761 184.769 139.355 175.784 139.355C166.799 139.355 159.515 141.761 159.515 144.728C159.515 147.695 166.799 150.1 175.784 150.1Z" fill="#093F68"/>
<path d="M175.784 150.624C167.519 150.624 159.056 148.462 159.056 144.793C159.056 141.124 167.584 138.962 175.784 138.962C183.984 138.962 192.512 141.124 192.512 144.793C192.512 148.462 184.05 150.624 175.784 150.624ZM175.784 139.814C166.272 139.814 159.975 142.369 159.975 144.728C159.975 147.086 166.338 149.641 175.784 149.641C185.231 149.641 191.594 147.086 191.594 144.728C191.594 142.369 185.296 139.814 175.784 139.814Z" fill="#093F68"/>
<path d="M155.907 135.359V143.221C155.907 146.169 163.189 148.593 172.242 148.593C181.294 148.593 188.51 146.169 188.51 143.221V135.359H155.907Z" fill="#68E1FD"/>
<path d="M172.242 149.117C164.042 149.117 155.514 146.955 155.514 143.286V135.424C155.514 135.162 155.71 134.966 155.973 134.966H188.576C188.838 134.966 189.035 135.162 189.035 135.424V143.286C188.97 146.955 180.442 149.117 172.242 149.117ZM156.366 135.883V143.286C156.366 145.645 162.73 148.2 172.176 148.2C181.622 148.2 187.986 145.645 187.986 143.286V135.883H156.366Z" fill="#093F68"/>
<path d="M172.242 140.731C181.227 140.731 188.511 138.326 188.511 135.359C188.511 132.392 181.227 129.986 172.242 129.986C163.257 129.986 155.973 132.392 155.973 135.359C155.973 138.326 163.257 140.731 172.242 140.731Z" fill="#68E1FD"/>
<path d="M172.242 141.255C164.042 141.255 155.514 139.028 155.514 135.359C155.514 131.69 164.042 129.528 172.242 129.528C180.442 129.528 188.97 131.755 188.97 135.359C188.97 138.962 180.442 141.255 172.242 141.255ZM172.242 130.445C162.795 130.445 156.432 133 156.432 135.359C156.432 137.717 162.795 140.272 172.242 140.272C181.688 140.272 188.051 137.717 188.051 135.359C188.051 133 181.688 130.445 172.242 130.445Z" fill="#093F68"/>
<path d="M137.999 196.093L138.327 201.99C138.392 205.921 145.936 209 155.12 208.804C164.304 208.607 171.717 205.266 171.651 201.335L171.323 195.438L137.999 196.093Z" fill="#68E1FD"/>
<path d="M154.399 209.262C150.594 209.328 146.723 208.672 143.181 207.362C139.835 205.986 137.933 204.086 137.933 201.99L137.605 196.159C137.605 196.028 137.671 195.897 137.736 195.831C137.802 195.766 137.933 195.7 138.064 195.7L171.389 195.045C171.651 195.045 171.848 195.241 171.848 195.438L172.176 201.335C172.242 205.593 164.829 209.066 155.186 209.262H154.399ZM138.458 196.552L138.786 201.924C138.851 203.628 140.491 205.266 143.443 206.51C147.183 207.886 151.119 208.476 155.12 208.345C163.911 208.214 171.258 205.004 171.192 201.4L170.864 195.962L138.458 196.552Z" fill="#093F68"/>
<path d="M154.725 202.965C163.925 202.794 171.324 199.458 171.25 195.515C171.177 191.571 163.658 188.514 154.458 188.685C145.257 188.857 137.858 192.193 137.932 196.136C138.006 200.079 145.524 203.137 154.725 202.965Z" fill="#68E1FD"/>
<path d="M154.005 203.431C150.2 203.497 146.33 202.842 142.787 201.531C139.442 200.155 137.539 198.255 137.539 196.159C137.474 191.9 144.886 188.428 154.53 188.231C158.597 188.1 162.664 188.69 166.534 190.131C169.88 191.507 171.782 193.407 171.782 195.504C171.848 199.762 164.435 203.235 154.792 203.431H154.005ZM155.251 189.148H154.53C145.739 189.279 138.392 192.49 138.458 196.093C138.458 197.797 140.163 199.435 143.115 200.614C146.854 201.99 150.79 202.579 154.792 202.448C163.582 202.317 170.93 199.107 170.864 195.504C170.864 193.8 169.158 192.162 166.206 190.983C162.664 189.673 158.99 189.017 155.251 189.148Z" fill="#093F68"/>
<path d="M166.469 194.783L164.107 195.045C163.976 195.045 163.91 195.11 163.976 195.176C164.501 195.634 164.698 196.29 164.632 196.945C164.435 197.6 163.779 197.993 162.598 198.255C162.27 198.321 161.942 198.386 161.614 198.452L159.318 196.486C159.778 196.486 160.171 196.355 160.499 196.093C160.63 195.897 160.696 195.7 160.762 195.503H160.696L156.301 195.962C156.366 196.028 156.366 196.093 156.432 196.159C156.76 196.617 156.957 197.141 157.088 197.731C157.219 198.648 156.498 199.172 154.923 199.434C153.414 199.697 151.906 199.631 150.397 199.238C149.282 198.976 148.232 198.517 147.248 197.928C146.789 197.6 146.33 197.272 145.87 196.945L144.23 197.076L143.115 195.503L144.69 195.372C144.624 195.045 144.558 194.783 144.493 194.455C144.493 193.865 144.821 193.276 145.411 193.014C146.133 192.686 146.92 192.424 147.707 192.424L149.019 193.865C147.904 194.062 147.314 194.455 147.51 195.045L151.84 194.586C151.709 194.259 151.578 193.931 151.512 193.603C151.381 193.276 151.446 192.883 151.643 192.621C152.037 192.228 152.562 192.031 153.086 191.965C154.005 191.769 154.923 191.703 155.842 191.769C157.35 191.834 158.859 192.162 160.237 192.752C160.762 192.948 161.221 193.21 161.68 193.472L161.877 193.538L164.173 193.276L166.469 194.783ZM148.888 196.552C149.282 196.879 149.675 197.076 150.134 197.272C151.053 197.6 152.365 197.534 152.758 197.207C153.152 196.879 152.89 196.552 152.824 196.224L148.888 196.552ZM158.99 193.8C158.531 193.603 158.138 193.407 157.678 193.276C156.629 192.948 155.317 193.014 155.12 193.472C154.989 193.669 155.12 193.931 155.251 194.193L158.99 193.8Z" fill="white"/>
<path d="M165.682 126.842L164.501 132.607C163.517 136.407 170.011 141.321 178.933 143.548C187.855 145.776 195.858 144.466 196.842 140.666L198.023 134.9L165.682 126.842Z" fill="#68E1FD"/>
<path d="M187.33 145.121C184.509 145.121 181.622 144.728 178.867 144.007C169.552 141.714 163.058 136.669 164.107 132.541L165.288 126.776C165.288 126.645 165.419 126.579 165.485 126.448C165.616 126.383 165.747 126.383 165.813 126.383L198.154 134.441C198.416 134.507 198.547 134.769 198.482 134.966L197.301 140.731C196.776 142.762 194.546 144.204 191.003 144.793C189.757 145.055 188.576 145.121 187.33 145.121ZM166.075 127.431L164.96 132.738C164.107 136.276 170.536 140.993 179.064 143.155C182.869 144.204 186.87 144.466 190.806 143.941C193.955 143.417 195.989 142.238 196.382 140.6L197.432 135.293L166.075 127.431Z" fill="#093F68"/>
<path d="M198.056 134.934C199.009 131.106 192.543 126.205 183.613 123.987C174.683 121.768 166.671 123.072 165.718 126.899C164.764 130.727 171.231 135.628 180.161 137.847C189.091 140.065 197.103 138.761 198.056 134.934Z" fill="#68E1FD"/>
<path d="M188.51 139.355C185.69 139.355 182.803 138.962 180.048 138.242C176.046 137.324 172.307 135.621 168.962 133.328C166.075 131.166 164.763 128.807 165.288 126.776C165.813 124.745 168.043 123.304 171.586 122.714C179.786 121.797 187.986 123.893 194.808 128.479C197.694 130.642 199.006 133 198.482 135.031C197.957 137.062 195.726 138.504 192.184 139.093C190.938 139.29 189.757 139.355 188.51 139.355ZM175.259 123.369C174.078 123.369 172.898 123.435 171.717 123.631C168.568 124.155 166.534 125.4 166.141 126.973C165.747 128.545 166.928 130.642 169.486 132.542C176.112 136.997 184.05 138.962 191.987 138.11C195.136 137.586 197.17 136.407 197.563 134.769C197.957 133.131 196.776 131.1 194.218 129.2C191.003 126.907 187.33 125.269 183.459 124.417C180.835 123.697 178.08 123.369 175.259 123.369Z" fill="#093F68"/>
<path d="M193.562 133L191.2 132.607C191.069 132.607 191.003 132.607 191.069 132.672C191.463 133.262 191.463 133.917 191.2 134.572C190.872 135.162 190.085 135.359 188.904 135.293C188.576 135.293 188.248 135.228 187.92 135.228L186.215 132.738C186.608 132.869 187.067 132.803 187.461 132.607C187.592 132.476 187.723 132.279 187.855 132.148L187.789 132.083L183.394 131.362C183.394 131.428 183.459 131.493 183.459 131.559C183.656 132.083 183.722 132.672 183.722 133.262C183.656 134.179 182.738 134.507 181.163 134.376C179.655 134.245 178.211 133.786 176.834 133.066C175.85 132.541 174.931 131.821 174.144 131.034C173.751 130.576 173.423 130.117 173.095 129.724L171.455 129.462L170.799 127.628L172.373 127.89C172.373 127.562 172.373 127.3 172.439 126.972C172.57 126.383 173.095 125.924 173.685 125.793C174.472 125.662 175.259 125.662 176.047 125.793L176.965 127.562C175.85 127.497 175.194 127.693 175.194 128.348L179.523 129.069C179.523 128.741 179.458 128.414 179.392 128.086C179.327 127.693 179.458 127.366 179.786 127.169C180.245 126.907 180.835 126.841 181.36 126.907C182.279 126.972 183.197 127.103 184.115 127.431C185.559 127.89 186.871 128.61 188.117 129.528C188.576 129.855 188.904 130.248 189.363 130.641L189.495 130.772L191.791 131.166L193.562 133ZM176.112 130.117C176.375 130.51 176.768 130.838 177.162 131.1C177.949 131.624 179.195 131.952 179.72 131.69C180.245 131.428 180.048 131.1 180.048 130.707L176.112 130.117ZM186.608 130.052C186.215 129.724 185.887 129.462 185.493 129.266C184.575 128.676 183.263 128.414 182.935 128.741C182.738 128.938 182.803 129.2 182.869 129.462L186.608 130.052Z" fill="white"/>
<path d="M125.863 137.717L130.848 140.797C134.128 143.024 140.951 138.569 146.067 130.969C151.184 123.369 152.693 115.376 149.479 113.148L144.493 110.069L125.863 137.717Z" fill="#68E1FD"/>
<path d="M132.947 141.845C132.16 141.845 131.373 141.648 130.717 141.19L125.731 138.11C125.535 137.979 125.469 137.717 125.6 137.455L144.231 109.807C144.362 109.61 144.624 109.545 144.821 109.676L149.872 112.755C153.415 115.179 151.971 123.238 146.658 131.231C142.131 137.717 136.687 141.845 132.947 141.845ZM126.519 137.586L131.111 140.403C134.128 142.434 140.819 137.979 145.739 130.707C150.659 123.434 152.234 115.572 149.216 113.541L144.624 110.724L126.519 137.586Z" fill="#093F68"/>
<path d="M141.089 127.912C146.227 120.287 147.736 112.321 144.46 110.119C141.184 107.917 134.363 112.313 129.225 119.938C124.088 127.562 122.578 135.528 125.855 137.73C129.131 139.932 135.951 135.536 141.089 127.912Z" fill="#68E1FD"/>
<path d="M127.896 138.766C127.109 138.766 126.322 138.569 125.666 138.111C123.895 136.931 123.304 134.311 124.026 130.773C125.994 122.779 130.717 115.769 137.408 110.921C140.426 108.955 143.05 108.497 144.821 109.676C146.592 110.855 147.183 113.476 146.461 117.014C144.493 125.007 139.77 132.083 133.079 136.866C131.111 138.111 129.405 138.766 127.896 138.766ZM142.525 110.004C141.213 110.004 139.639 110.593 137.867 111.707C131.439 116.359 126.847 123.173 124.879 130.969C124.288 134.114 124.747 136.407 126.125 137.39C127.503 138.373 129.864 137.914 132.554 136.145C138.983 131.493 143.575 124.679 145.543 116.883C146.133 113.738 145.674 111.445 144.296 110.462C143.706 110.2 143.115 110.004 142.525 110.004Z" fill="#093F68"/>
<path d="M141.147 113.672C140.754 114.393 140.36 115.048 139.966 115.703C139.901 115.834 139.901 115.9 140.032 115.834C140.688 115.703 141.344 115.9 141.869 116.359C142.262 116.883 142.262 117.669 141.738 118.783C141.606 119.11 141.475 119.372 141.278 119.7L138.326 120.421C138.589 120.093 138.654 119.634 138.654 119.241C138.589 119.045 138.458 118.848 138.326 118.717L138.261 118.783L136.096 122.648C136.162 122.648 136.227 122.648 136.358 122.648C136.949 122.648 137.539 122.779 138.064 122.976C138.851 123.369 138.917 124.286 138.261 125.728C137.605 127.103 136.686 128.348 135.506 129.331C134.653 130.117 133.734 130.707 132.619 131.165C132.094 131.362 131.57 131.493 130.979 131.69L130.192 133.131H128.224L129.011 131.755C128.749 131.624 128.421 131.559 128.158 131.362C127.634 131.034 127.371 130.379 127.502 129.79C127.634 129.003 127.896 128.217 128.29 127.562L130.258 127.3C129.798 128.283 129.733 129.003 130.389 129.2C131.11 127.89 131.766 126.645 132.488 125.4C132.16 125.334 131.832 125.269 131.504 125.138C131.176 125.072 130.848 124.81 130.782 124.483C130.717 123.959 130.782 123.434 131.045 122.91C131.438 122.059 131.898 121.272 132.488 120.552C133.406 119.372 134.522 118.324 135.834 117.538C136.293 117.21 136.752 117.014 137.277 116.752L137.474 116.686L138.589 114.655L141.147 113.672ZM132.488 129.069C132.947 128.938 133.406 128.741 133.8 128.414C134.587 127.824 135.309 126.776 135.243 126.252C135.178 125.793 134.784 125.793 134.456 125.662L132.488 129.069ZM136.03 119.176C135.637 119.438 135.243 119.7 134.85 119.962C133.997 120.617 133.341 121.731 133.472 122.19C133.603 122.452 133.866 122.452 134.128 122.517L136.03 119.176Z" fill="white"/>
<path d="M113.792 155.407L114.12 161.303C114.186 165.234 121.73 168.314 130.914 168.117C140.098 167.921 147.511 164.579 147.445 160.648L147.117 154.752L113.792 155.407Z" fill="#68E1FD"/>
<path d="M130.192 168.576C120.942 168.576 113.792 165.431 113.726 161.303L113.398 155.472C113.398 155.341 113.464 155.21 113.53 155.145C113.595 155.079 113.726 155.014 113.858 155.014L147.182 154.359C147.445 154.359 147.642 154.555 147.642 154.752L147.97 160.648C148.035 162.745 146.198 164.71 142.918 166.217C139.114 167.79 135.112 168.576 130.979 168.576H130.192ZM114.251 155.866L114.579 161.238C114.645 164.841 122.123 167.79 130.914 167.659C134.85 167.659 138.786 166.872 142.459 165.366C145.346 164.055 146.986 162.352 146.986 160.648L146.658 155.21L114.251 155.866Z" fill="#093F68"/>
<path d="M130.518 162.215C139.719 162.043 147.117 158.707 147.044 154.764C146.97 150.821 139.452 147.763 130.251 147.935C121.051 148.106 113.652 151.442 113.726 155.385C113.799 159.329 121.318 162.386 130.518 162.215Z" fill="#68E1FD"/>
<path d="M129.799 162.679C120.549 162.679 113.399 159.535 113.333 155.407C113.267 151.148 120.68 147.676 130.323 147.479C134.85 147.414 139.114 148.069 142.328 149.379C145.674 150.755 147.576 152.655 147.576 154.752C147.642 156.848 145.805 158.814 142.525 160.321C138.72 161.893 134.719 162.679 130.586 162.679H129.799ZM131.045 148.397H130.323C121.533 148.528 114.186 151.738 114.251 155.341C114.317 158.945 121.795 161.893 130.586 161.697C134.522 161.697 138.458 160.91 142.131 159.403C145.018 158.093 146.658 156.39 146.658 154.686C146.658 152.983 144.952 151.345 142 150.166C138.458 148.986 134.784 148.331 131.045 148.397Z" fill="#093F68"/>
<path d="M142.263 154.097L139.901 154.359C139.77 154.359 139.704 154.424 139.77 154.49C140.295 154.948 140.491 155.604 140.426 156.259C140.229 156.914 139.573 157.307 138.392 157.569C138.064 157.635 137.736 157.7 137.408 157.766L135.112 155.8C135.571 155.8 135.965 155.669 136.293 155.407C136.424 155.211 136.49 155.014 136.555 154.817H136.49L132.095 155.276C132.16 155.342 132.16 155.407 132.226 155.473C132.554 155.931 132.751 156.455 132.882 157.045C133.013 157.962 132.291 158.486 130.717 158.748C129.208 159.01 127.699 158.945 126.191 158.552C125.075 158.29 124.026 157.831 123.042 157.242C122.583 156.914 122.123 156.586 121.664 156.259L120.024 156.39L118.909 154.817L120.483 154.686C120.418 154.359 120.352 154.097 120.287 153.769C120.287 153.179 120.615 152.59 121.205 152.328C121.927 152 122.714 151.738 123.501 151.738L124.813 153.179C123.698 153.376 123.107 153.769 123.304 154.359L127.634 153.9C127.503 153.573 127.371 153.245 127.24 152.917C127.109 152.59 127.175 152.197 127.371 151.935C127.765 151.542 128.29 151.345 128.815 151.279C129.733 151.083 130.651 151.017 131.57 151.083C133.079 151.148 134.587 151.476 135.965 152.066C136.49 152.262 136.949 152.524 137.408 152.786L137.605 152.852L139.901 152.59L142.263 154.097ZM124.682 155.866C125.075 156.193 125.469 156.39 125.928 156.586C126.847 156.914 128.159 156.848 128.552 156.521C128.946 156.193 128.683 155.866 128.618 155.538L124.682 155.866ZM134.784 153.048C134.325 152.852 133.931 152.655 133.472 152.524C132.423 152.197 131.111 152.262 130.914 152.721C130.783 152.917 130.914 153.179 131.045 153.442L134.784 153.048Z" fill="white"/>
<path d="M160.368 31.776L164.239 36.1657C166.666 39.245 174.472 37.0829 181.623 31.3174C188.773 25.5519 192.578 18.476 190.151 15.3967L186.28 11.0071L160.368 31.776Z" fill="#68E1FD"/>
<path d="M167.847 38.0002C166.075 38.0002 164.698 37.476 163.845 36.4277L159.975 32.0381C159.778 31.8415 159.843 31.5795 160.04 31.3829L185.952 10.6795C186.149 10.4829 186.411 10.5484 186.608 10.745L190.479 15.1346C191.791 16.7726 191.594 19.4588 189.888 22.6036C187.855 26.1415 185.165 29.2208 181.885 31.7105C176.834 35.7726 171.586 38.0002 167.847 38.0002ZM161.024 31.8415L164.567 35.9036C166.863 38.7208 174.472 36.4933 181.36 31.0553C184.509 28.6312 187.133 25.6829 189.101 22.276C190.61 19.4588 190.872 17.1657 189.823 15.8553L186.28 11.7933L161.024 31.8415Z" fill="#093F68"/>
<path d="M177.789 26.9214C184.943 21.1989 188.76 14.0872 186.314 11.0371C183.868 7.987 176.085 10.1534 168.931 15.876C161.777 21.5985 157.96 28.7101 160.406 31.7603C162.852 34.8104 170.634 32.6439 177.789 26.9214Z" fill="#68E1FD"/>
<path d="M164.042 33.6104C162.27 33.6104 160.893 33.0862 160.04 32.038C157.416 28.6966 161.155 21.4897 168.634 15.5276C171.782 12.9069 175.39 10.9414 179.261 9.7621C182.738 8.77934 185.362 9.17244 186.674 10.8104C189.298 14.0862 185.558 21.4242 178.08 27.3862C172.963 31.3173 167.715 33.6104 164.042 33.6104ZM182.672 10.0897C181.622 10.0897 180.507 10.2862 179.523 10.5483C175.784 11.7276 172.242 13.6276 169.224 16.1828C162.402 21.6207 158.531 28.6311 160.762 31.4483C162.992 34.2655 170.667 32.038 177.49 26.5345C184.312 21.0311 188.182 14.0862 185.952 11.269C185.296 10.5483 184.115 10.0897 182.672 10.0897Z" fill="#093F68"/>
<path d="M182.016 13.4312L180.31 15.0691C180.179 15.2001 180.179 15.2001 180.31 15.2001C180.966 15.2656 181.557 15.6587 181.885 16.2484C182.147 16.8381 181.819 17.6243 181.032 18.5415C180.835 18.8036 180.573 19.0001 180.376 19.2622L177.358 19.0656C177.686 18.8036 177.883 18.4105 178.014 18.0174C178.014 17.8208 177.949 17.6243 177.883 17.4277H177.818L174.603 20.4415L174.8 20.507C175.325 20.7036 175.85 20.9656 176.309 21.3587C176.965 21.9484 176.702 22.8656 175.653 24.0449C174.603 25.1587 173.357 26.076 171.979 26.6656C170.93 27.1898 169.814 27.4518 168.699 27.5174C168.109 27.5174 167.584 27.5174 166.994 27.5174L165.813 28.6312L163.976 28.0415L165.157 26.9277C164.894 26.7312 164.698 26.5346 164.435 26.338C164.042 25.8794 163.976 25.2243 164.304 24.6346C164.632 23.9139 165.157 23.2587 165.747 22.7346L167.715 23.0622C166.994 23.8484 166.731 24.5036 167.256 24.8967L170.405 21.8829C170.077 21.6863 169.814 21.5553 169.552 21.3587C169.224 21.1622 169.027 20.8346 169.027 20.507C169.093 19.9829 169.355 19.4587 169.749 19.1312C170.339 18.4105 171.061 17.8208 171.782 17.2967C173.029 16.4449 174.406 15.7898 175.85 15.3967C176.44 15.2656 176.899 15.2001 177.49 15.0691H177.686L179.392 13.4967L182.016 13.4312ZM169.224 25.4863C169.683 25.4863 170.208 25.4208 170.667 25.2898C171.586 24.9622 172.57 24.176 172.635 23.6518C172.701 23.1932 172.307 23.0622 172.045 22.8001L169.224 25.4863ZM175.522 17.1656C175.062 17.2967 174.603 17.3622 174.21 17.5587C173.226 17.9518 172.242 18.8036 172.307 19.2622C172.307 19.5243 172.57 19.6553 172.832 19.7863L175.522 17.1656Z" fill="white"/>
<path d="M126.912 4.65186L122.845 8.84496C119.958 11.5312 122.779 19.1312 129.011 25.7484C135.243 32.3657 142.722 35.6415 145.542 32.9553L149.675 28.7622L126.912 4.65186Z" fill="#68E1FD"/>
<path d="M142.787 34.3967C141.279 34.3312 139.77 34.0036 138.392 33.3484C134.719 31.5795 131.439 29.1553 128.683 26.1415C122.123 19.1967 119.434 11.4657 122.517 8.58293L126.584 4.38982C126.65 4.3243 126.781 4.25879 126.912 4.25879C127.043 4.25879 127.175 4.3243 127.24 4.38982L150.003 28.5002C150.2 28.6967 150.2 28.9588 150.003 29.1553L145.936 33.3484C145.083 34.0691 143.968 34.4622 142.787 34.3967ZM126.912 5.30706L123.173 9.17258C120.549 11.6622 123.37 19.1312 129.405 25.4864C132.029 28.4347 135.243 30.7933 138.851 32.4967C141.738 33.7416 144.099 33.8071 145.346 32.6933L149.151 28.8278L126.912 5.30706Z" fill="#093F68"/>
<path d="M149.678 28.7547C152.527 26.0754 149.741 18.5008 143.457 11.8362C137.173 5.1717 129.769 1.94098 126.921 4.62023C124.072 7.29948 126.857 14.8741 133.142 21.5387C139.426 28.2032 146.83 31.4339 149.678 28.7547Z" fill="#68E1FD"/>
<path d="M146.92 30.2035C143.181 30.2035 137.736 27.1242 132.816 21.8828C126.256 14.938 123.566 7.20696 126.65 4.3242C128.158 2.88282 130.848 2.88282 134.128 4.3242C141.475 7.99316 147.248 14.1518 150.462 21.6208C151.709 25.0276 151.512 27.6483 150.003 29.0897C149.15 29.8759 148.035 30.269 146.92 30.2035ZM129.667 4.19317C128.749 4.12765 127.896 4.45523 127.24 4.97937C124.616 7.46903 127.437 14.938 133.472 21.2276C139.507 27.5173 146.723 30.8587 149.347 28.4345C150.594 27.2552 150.659 24.8966 149.544 21.9483C146.395 14.6759 140.819 8.71386 133.734 5.11041C132.422 4.58627 131.11 4.25868 129.667 4.19317Z" fill="#093F68"/>
<path d="M146.92 24.7657L145.149 23.1933C145.018 23.0622 145.018 23.0622 145.018 23.1933C145.018 23.8485 144.69 24.5036 144.099 24.8312C143.509 25.0933 142.722 24.8967 141.738 24.176C141.475 23.9795 141.213 23.7829 140.951 23.5864L140.885 20.5726C141.147 20.9002 141.541 21.0967 142 21.1622C142.197 21.0967 142.394 21.0312 142.591 20.9657L142.525 20.9002L139.245 17.9519L139.179 18.1485C139.048 18.7381 138.786 19.2622 138.458 19.7209C137.867 20.4416 136.949 20.245 135.768 19.2622C134.587 18.345 133.603 17.1657 132.882 15.8553C132.291 14.8726 131.898 13.8243 131.767 12.7105C131.701 12.1209 131.635 11.5967 131.635 11.0071L130.455 9.89328L130.914 7.99328L132.095 9.04156C132.291 8.77949 132.423 8.51742 132.619 8.32087C133.079 7.86224 133.735 7.79673 134.259 8.0588C134.981 8.32087 135.637 8.77949 136.227 9.30362L136.031 11.2691C135.178 10.614 134.456 10.4174 134.128 11.0071L137.408 13.8898C137.539 13.5622 137.671 13.3002 137.867 12.9726C137.999 12.645 138.327 12.3829 138.72 12.3829C139.245 12.4485 139.77 12.645 140.163 12.9726C140.885 13.4967 141.607 14.1519 142.197 14.8726C143.181 16.0519 143.903 17.3622 144.427 18.7381C144.624 19.2622 144.69 19.7864 144.887 20.3105C144.887 20.376 144.887 20.4416 144.952 20.5071L146.658 22.0795L146.92 24.7657ZM133.866 12.9726C133.866 13.4312 133.997 13.9554 134.194 14.3485C134.587 15.2657 135.44 16.1829 136.031 16.1829C136.49 16.2485 136.621 15.8553 136.818 15.5278L133.866 12.9726ZM142.722 18.6071C142.525 18.1485 142.394 17.7554 142.197 17.2967C141.738 16.314 140.819 15.3967 140.36 15.5278C140.098 15.5933 140.032 15.8553 139.901 16.1174L142.722 18.6071Z" fill="white"/>
<path d="M178.343 178.076C175.063 183.514 178.736 195.569 178.736 195.569L183.591 199.107C190.741 203.628 200.253 201.466 204.714 194.259C209.24 187.117 207.075 177.617 199.859 173.162C199.728 173.031 199.531 172.966 199.335 172.835L193.955 170.214C193.955 170.214 181.557 172.638 178.343 178.076Z" fill="#68E1FD"/>
<path d="M191.397 201.728C188.576 201.728 185.755 200.942 183.328 199.5L178.474 195.962C178.408 195.897 178.343 195.831 178.277 195.7C178.146 195.176 174.603 183.383 177.949 177.814C181.295 172.245 193.365 169.821 193.89 169.755C193.955 169.755 194.087 169.755 194.152 169.821L199.531 172.442C207.01 176.897 209.437 186.593 204.976 194.062C202.155 198.845 197.039 201.728 191.397 201.728ZM179.13 195.307L183.853 198.714C190.872 202.907 200.056 200.614 204.255 193.604C208.453 186.593 206.157 177.421 199.138 173.228L193.955 170.673C192.578 171 181.688 173.424 178.802 178.273C175.784 183.186 178.736 193.931 179.13 195.307Z" fill="#093F68"/>
<path d="M188.117 199.303C196.595 199.303 203.467 192.439 203.467 183.972C203.467 175.505 196.595 168.641 188.117 168.641C179.639 168.641 172.767 175.505 172.767 183.972C172.767 192.439 179.639 199.303 188.117 199.303Z" fill="#68E1FD"/>
<path d="M188.117 199.697C179.392 199.697 172.307 192.621 172.373 183.907C172.439 175.193 179.458 168.117 188.183 168.183C191.069 168.183 193.89 168.969 196.317 170.41C203.795 174.866 206.223 184.562 201.696 192.031C198.81 196.814 193.627 199.762 188.117 199.697ZM188.117 169.1C179.917 169.1 173.226 175.717 173.226 183.972C173.226 192.162 179.851 198.845 188.117 198.845C196.317 198.845 203.008 192.228 203.008 183.972C203.008 178.731 200.253 173.948 195.792 171.262C193.496 169.821 190.807 169.1 188.117 169.1Z" fill="#093F68"/>
<path d="M179.523 176.962L181.426 178.141C181.557 178.207 181.622 178.207 181.688 178.076C182.41 177.224 183.394 176.635 184.443 176.241C185.558 175.848 186.739 175.848 187.854 176.307C188.182 176.438 188.445 176.569 188.773 176.7L187.002 179.648C186.542 179.386 186.018 179.255 185.493 179.321C185.099 179.452 184.706 179.517 184.312 179.714V179.779L187.986 182.007C188.051 181.941 188.182 181.81 188.248 181.745C188.904 181.024 189.626 180.435 190.413 179.845C191.594 178.993 193.102 178.862 194.414 179.517C195.661 180.041 196.645 181.024 197.17 182.204C197.629 183.186 197.694 184.3 197.498 185.348C197.366 186.004 197.17 186.659 196.973 187.314L198.416 188.166L196.776 190.852L195.267 189.935C194.808 190.393 194.349 190.852 193.89 191.245C192.971 192.031 191.79 192.49 190.61 192.555C189.56 192.555 188.576 192.293 187.658 191.769L189.429 188.886C190.478 189.476 191.79 189.279 192.643 188.428L188.707 186.069C188.182 186.528 187.723 186.986 187.264 187.445C186.674 187.969 185.952 188.428 185.23 188.624C184.443 188.821 183.59 188.755 182.869 188.493C181.95 188.166 181.098 187.576 180.442 186.79C179.523 185.676 179.13 184.169 179.458 182.728C179.589 182.138 179.786 181.614 179.982 181.024C179.982 180.959 180.048 180.893 180.048 180.828L178.08 179.648L179.523 176.962ZM194.283 185.807C194.48 185.348 194.546 184.759 194.48 184.235C194.283 183.317 193.496 182.662 192.578 182.728C191.922 182.924 191.331 183.252 190.938 183.71L194.283 185.807ZM182.41 182.4C182.344 182.859 182.344 183.317 182.344 183.776C182.41 184.693 183.262 185.414 184.181 185.348C184.246 185.348 184.378 185.348 184.443 185.283C184.902 185.086 185.362 184.759 185.69 184.366L182.41 182.4Z" fill="white"/>
<path d="M124.55 174.931C118.318 173.686 108.15 181.09 108.15 181.09L106.445 186.855C104.739 195.11 110.118 203.235 118.384 204.938C126.65 206.641 134.784 201.269 136.49 193.014L137.146 187.052C137.146 187.052 130.782 176.241 124.55 174.931Z" fill="#68E1FD"/>
<path d="M121.533 205.724C120.483 205.724 119.368 205.593 118.318 205.397C109.79 203.693 104.28 195.372 105.986 186.855V186.79L107.691 181.024C107.691 180.959 107.757 180.828 107.822 180.762C108.216 180.435 118.253 173.228 124.55 174.472C130.914 175.783 137.211 186.331 137.474 186.79C137.539 186.855 137.539 186.986 137.539 187.052L136.883 193.014C135.506 200.417 129.011 205.724 121.533 205.724ZM108.544 181.417L106.904 186.986C105.264 195.045 110.446 202.841 118.515 204.479C126.584 206.117 134.39 200.941 136.03 192.883L136.686 187.117C135.965 185.872 130.061 176.504 124.419 175.324C118.909 174.276 109.725 180.566 108.544 181.417Z" fill="#093F68"/>
<path d="M122.254 201.466C130.732 201.466 137.605 194.602 137.605 186.134C137.605 177.667 130.732 170.803 122.254 170.803C113.777 170.803 106.904 177.667 106.904 186.134C106.904 194.602 113.777 201.466 122.254 201.466Z" fill="#68E1FD"/>
<path d="M122.32 201.924C121.27 201.924 120.155 201.793 119.106 201.597C110.578 199.828 105.067 191.507 106.773 182.99C108.544 174.473 116.875 168.969 125.403 170.673C133.931 172.442 139.442 180.762 137.736 189.279C136.227 196.617 129.798 201.859 122.32 201.924ZM122.254 171.262C114.054 171.262 107.363 177.945 107.429 186.135C107.429 194.324 114.12 201.007 122.32 200.942C129.405 200.942 135.44 195.962 136.883 189.083C138.523 181.024 133.341 173.228 125.338 171.524C124.288 171.393 123.238 171.262 122.254 171.262Z" fill="#093F68"/>
<path d="M125.994 175.717C125.863 176.438 125.731 177.159 125.535 177.879C125.535 178.01 125.535 178.076 125.666 178.141C126.715 178.6 127.568 179.255 128.29 180.107C129.011 181.024 129.405 182.138 129.339 183.317C129.339 183.645 129.274 183.972 129.274 184.3L125.928 183.579C125.994 183.055 125.928 182.531 125.731 182.072C125.535 181.745 125.272 181.417 125.01 181.09H124.944L124.091 185.283L124.419 185.414C125.272 185.807 126.125 186.265 126.912 186.79C128.093 187.641 128.749 189.017 128.552 190.459C128.487 191.769 127.896 193.014 126.912 193.931C126.125 194.652 125.075 195.11 124.026 195.241C123.37 195.307 122.648 195.307 121.992 195.372L121.664 197.01L118.581 196.355L118.909 194.652C118.319 194.324 117.728 194.128 117.203 193.8C116.154 193.21 115.301 192.293 114.842 191.179C114.448 190.197 114.383 189.148 114.645 188.165L117.991 188.821C117.794 190 118.45 191.179 119.499 191.703C119.827 190.197 120.09 188.69 120.418 187.183C119.827 186.855 119.237 186.593 118.647 186.265C117.925 185.872 117.335 185.348 116.875 184.693C116.416 184.038 116.219 183.186 116.219 182.4C116.219 181.417 116.482 180.434 117.007 179.517C117.794 178.272 119.04 177.421 120.549 177.224C121.139 177.159 121.73 177.159 122.32 177.159H122.517L122.976 174.865L125.994 175.717ZM122.583 192.555C123.107 192.621 123.632 192.49 124.091 192.228C124.879 191.769 125.207 190.786 124.879 189.934C124.485 189.41 123.96 188.952 123.37 188.69L122.583 192.555ZM121.861 180.238C121.402 180.303 121.008 180.434 120.549 180.565C119.696 180.959 119.303 181.941 119.696 182.793C119.762 182.859 119.762 182.99 119.827 183.055C120.155 183.448 120.615 183.776 121.074 183.972L121.861 180.238Z" fill="white"/>
<path d="M169.683 61.9794C168.109 57.5242 165.222 51.3001 161.221 49.2035C154.792 45.7966 141.082 50.6449 141.082 50.6449L137.342 56.4104C136.424 58.1139 135.768 60.0139 135.506 61.9794H169.683Z" fill="#68E1FD"/>
<path d="M169.683 62.4381H135.44C135.309 62.4381 135.178 62.3726 135.112 62.3071C135.047 62.176 134.981 62.045 134.981 61.914C135.309 59.9484 135.965 57.9829 136.883 56.214L140.688 50.3829C140.754 50.3174 140.819 50.2519 140.951 50.1864C141.541 49.9898 154.923 45.2726 161.418 48.745C165.485 50.9071 168.371 57.0657 170.077 61.7829C170.143 61.914 170.143 62.1105 170.011 62.176C170.011 62.3726 169.88 62.4381 169.683 62.4381ZM136.031 61.5208H169.027C167.322 57.0002 164.632 51.5622 161.024 49.5967C155.186 46.4519 142.853 50.514 141.41 51.0381L137.736 56.6726C136.949 58.1795 136.359 59.8174 136.031 61.5208Z" fill="#093F68"/>
<path d="M172.635 61.9793C173.291 52.2827 165.944 43.8965 156.235 43.2414C146.527 42.5862 138.13 49.9241 137.474 59.6207C137.408 60.4069 137.408 61.1931 137.474 61.9793H172.635Z" fill="#68E1FD"/>
<path d="M172.635 62.4381H137.408C137.146 62.4381 136.949 62.2415 136.949 62.045C136.293 52.0864 143.771 43.4381 153.743 42.7829C163.714 42.1278 172.373 49.5967 173.029 59.5553C173.095 60.4071 173.095 61.1933 173.029 62.045C173.029 62.2415 172.898 62.4381 172.635 62.4381ZM137.867 61.5208H172.176C172.57 52.0208 165.223 44.0278 155.776 43.6347C146.33 43.2415 138.261 50.5795 137.867 60.014C137.802 60.5381 137.802 60.9967 137.867 61.5208Z" fill="#093F68"/>
<path d="M150.856 59.8827C151.381 60.4069 151.971 60.931 152.496 61.5206C152.431 61.6517 152.365 61.7827 152.234 61.9793H158.794C158.4 61.5862 157.941 61.1931 157.547 60.8L157.219 60.5379L159.581 56.1482H159.647C159.843 56.6069 160.04 57 160.171 57.4586C160.303 58.0482 160.171 58.6379 159.909 59.162L163.386 61.062C163.517 60.6689 163.648 60.3413 163.779 60.0138C164.239 58.7034 164.173 57.3275 163.648 56.0827C163.123 54.9034 162.402 53.8551 161.352 53.0689C161.221 52.9379 161.221 52.8724 161.287 52.7413C161.68 52.0206 162.074 51.2344 162.533 50.5138L159.319 48.8103L158.072 51.1689C158.007 51.1689 157.941 51.1034 157.81 51.1034C157.154 50.9069 156.498 50.7103 155.842 50.6448C154.136 50.3827 152.496 50.9069 151.184 52.0206C150.331 52.8069 149.675 53.7896 149.347 54.9034C149.019 55.8206 149.019 56.7379 149.282 57.6551C149.741 58.4413 150.2 59.2931 150.856 59.8827ZM154.923 54.1172C155.448 54.0517 155.973 54.0517 156.498 54.1172L154.399 58.0482C153.939 57.6551 153.546 57.1965 153.283 56.6069C152.955 55.5586 153.546 54.4448 154.595 54.1827C154.727 54.1172 154.858 54.1172 154.923 54.1172Z" fill="white"/>
<path d="M177.883 62.438H131.767C131.504 62.438 131.307 62.2414 131.307 61.9794C131.307 61.7173 131.504 61.5208 131.767 61.5208H177.883C178.146 61.5208 178.343 61.7173 178.343 61.9794C178.343 62.2414 178.146 62.438 177.883 62.438Z" fill="#093F68"/>
</g>
<defs>
<clipPath id="clip0_10712_7953">
<rect width="284" height="228" fill="white"/>
</clipPath>
</defs>
</svg>
