<svg width="284" height="228" viewBox="0 0 284 228" fill="none" xmlns="http://www.w3.org/2000/svg">
<path d="M54.4768 153.045V177.158C54.4768 186.583 74.2368 194.233 98.5568 194.233C122.877 194.233 142.637 186.583 142.637 177.158V153.045H54.4768Z" fill="white"/>
<path d="M98.5572 195.335C73.2036 195.335 53.3828 187.318 53.3828 177.097V152.984C53.3828 152.372 53.8692 151.883 54.4772 151.883H142.637C143.245 151.883 143.732 152.372 143.732 152.984V177.097C143.792 187.318 123.911 195.335 98.5572 195.335ZM55.6324 154.147V177.097C55.6324 185.726 75.3316 193.07 98.618 193.07C121.904 193.07 141.604 185.726 141.604 177.097V154.147H55.6324Z" fill="#093F68"/>
<path d="M98.5568 170.12C122.902 170.12 142.637 162.476 142.637 153.045C142.637 143.615 122.902 135.971 98.5568 135.971C74.2121 135.971 54.4768 143.615 54.4768 153.045C54.4768 162.476 74.2121 170.12 98.5568 170.12Z" fill="white"/>
<path d="M98.5572 171.222C73.2036 171.222 53.3828 163.205 53.3828 152.984C53.3828 142.764 73.2644 134.747 98.5572 134.747C123.85 134.747 143.732 142.764 143.732 152.984C143.732 163.205 123.911 171.222 98.5572 171.222ZM98.5572 137.072C75.2708 137.072 55.5716 144.416 55.5716 153.045C55.5716 161.675 75.2708 169.019 98.5572 169.019C121.844 169.019 141.543 161.675 141.543 153.045C141.543 144.416 121.904 137.072 98.5572 137.072Z" fill="#093F68"/>
<path d="M54.4768 129.055V153.168C54.4768 162.593 74.2368 170.243 98.5568 170.243C122.877 170.243 142.637 162.593 142.637 153.168V129.055H54.4768Z" fill="white"/>
<path d="M98.5572 171.345C73.2036 171.345 53.3828 163.327 53.3828 153.107V128.994C53.3828 128.382 53.8692 127.893 54.4772 127.893H142.637C143.245 127.893 143.732 128.382 143.732 128.994V153.168C143.792 163.389 123.911 171.345 98.5572 171.345ZM55.6324 130.157V153.168C55.6324 161.797 75.3316 169.141 98.618 169.141C121.904 169.141 141.604 161.797 141.604 153.168V130.157H55.6324Z" fill="#093F68"/>
<path d="M98.5568 146.13C122.902 146.13 142.637 138.485 142.637 129.055C142.637 119.625 122.902 111.98 98.5568 111.98C74.2121 111.98 54.4768 119.625 54.4768 129.055C54.4768 138.485 74.2121 146.13 98.5568 146.13Z" fill="#093F68"/>
<path d="M98.5572 147.293C73.2036 147.293 53.3828 139.275 53.3828 129.055C53.3828 118.835 73.2644 110.817 98.5572 110.817C123.85 110.817 143.732 118.835 143.732 129.055C143.732 139.275 123.911 147.293 98.5572 147.293ZM98.5572 113.082C75.2708 113.082 55.5716 120.426 55.5716 129.055C55.5716 137.684 75.2708 145.028 98.5572 145.028C121.844 145.028 141.543 137.684 141.543 129.055C141.543 120.426 121.904 113.082 98.5572 113.082Z" fill="#093F68"/>
<path d="M45.9043 100.597V124.71C45.9043 134.135 65.6643 141.785 89.9843 141.785C114.304 141.785 134.064 134.135 134.064 124.71V100.597H45.9043Z" fill="white"/>
<path d="M89.984 142.948C64.6304 142.948 44.8096 134.93 44.8096 124.71V100.597C44.8096 99.9852 45.296 99.4956 45.904 99.4956H134.064C134.672 99.4956 135.158 99.9852 135.158 100.597V124.71C135.158 134.93 115.338 142.948 89.984 142.948ZM46.9984 101.76V124.71C46.9984 133.339 66.6976 140.683 89.984 140.683C113.27 140.683 132.97 133.339 132.97 124.71V101.76H46.9984Z" fill="#093F68"/>
<path d="M89.9843 117.672C114.329 117.672 134.064 110.027 134.064 100.597C134.064 91.1671 114.329 83.5225 89.9843 83.5225C65.6396 83.5225 45.9043 91.1671 45.9043 100.597C45.9043 110.027 65.6396 117.672 89.9843 117.672Z" fill="white"/>
<path d="M89.984 118.835C64.6304 118.835 44.8096 110.817 44.8096 100.597C44.8096 90.3766 64.6304 82.3594 89.984 82.3594C115.338 82.3594 135.158 90.3766 135.158 100.597C135.158 110.817 115.338 118.835 89.984 118.835ZM89.984 84.6238C66.6976 84.6238 46.9984 91.9066 46.9984 100.597C46.9984 109.287 66.6976 116.57 89.984 116.57C113.27 116.57 132.97 109.287 132.97 100.597C132.97 91.9066 113.27 84.6238 89.984 84.6238Z" fill="#093F68"/>
<path d="M45.9043 76.668V100.781C45.9043 110.206 65.6643 117.856 89.9843 117.856C114.304 117.856 134.064 110.206 134.064 100.781V76.668H45.9043Z" fill="white"/>
<path d="M89.984 118.957C64.6304 118.957 44.8096 110.94 44.8096 100.72V76.668C44.8096 76.056 45.296 75.5664 45.904 75.5664H134.064C134.672 75.5664 135.158 76.056 135.158 76.668V100.781C135.158 110.94 115.338 118.957 89.984 118.957ZM46.9984 77.7696V100.781C46.9984 109.41 66.6976 116.754 89.984 116.754C113.27 116.754 132.97 109.471 132.97 100.781V77.7696H46.9984Z" fill="#093F68"/>
<path d="M89.9843 93.7429C114.329 93.7429 134.064 86.0982 134.064 76.6681C134.064 67.2379 114.329 59.5933 89.9843 59.5933C65.6396 59.5933 45.9043 67.2379 45.9043 76.6681C45.9043 86.0982 65.6396 93.7429 89.9843 93.7429Z" fill="white"/>
<path d="M89.984 94.8443C64.6304 94.8443 44.8096 86.8271 44.8096 76.6067C44.8096 66.3863 64.6304 58.3691 89.984 58.3691C115.338 58.3691 135.158 66.3863 135.158 76.6067C135.158 86.8271 115.338 94.8443 89.984 94.8443ZM89.984 60.6947C66.6976 60.6947 46.9984 67.9775 46.9984 76.6679C46.9984 85.3583 66.6976 92.6411 89.984 92.6411C113.27 92.6411 132.97 85.3583 132.97 76.6679C132.97 67.9775 113.27 60.6947 89.984 60.6947Z" fill="#093F68"/>
<path d="M151.757 146.13V170.243C151.757 179.667 171.517 187.317 195.837 187.317C220.157 187.317 239.917 179.667 239.917 170.243V146.13H151.757Z" fill="white"/>
<path d="M195.837 188.48C170.483 188.48 150.602 180.463 150.602 170.243V146.13C150.602 145.518 151.088 145.028 151.696 145.028H239.856C240.464 145.028 240.95 145.518 240.95 146.13V170.243C241.072 180.463 221.19 188.48 195.837 188.48ZM152.851 147.293V170.243C152.851 178.872 172.55 186.216 195.837 186.216C219.123 186.216 238.822 178.872 238.822 170.243V147.293H152.851Z" fill="#093F68"/>
<path d="M195.837 163.205C220.182 163.205 239.917 155.56 239.917 146.13C239.917 136.7 220.182 129.055 195.837 129.055C171.492 129.055 151.757 136.7 151.757 146.13C151.757 155.56 171.492 163.205 195.837 163.205Z" fill="white"/>
<path d="M195.837 164.368C170.483 164.368 150.602 156.351 150.602 146.13C150.602 135.91 170.483 127.893 195.837 127.893C221.19 127.893 241.011 135.91 241.011 146.13C241.011 156.351 221.19 164.368 195.837 164.368ZM195.837 130.157C172.55 130.157 152.851 137.501 152.851 146.13C152.851 154.759 172.55 162.103 195.837 162.103C219.123 162.103 238.822 154.759 238.822 146.13C238.822 137.501 219.123 130.157 195.837 130.157Z" fill="#093F68"/>
<path d="M151.757 122.201V146.313C151.757 155.738 171.517 163.388 195.837 163.388C220.157 163.388 239.917 155.738 239.917 146.313V122.201H151.757Z" fill="white"/>
<path d="M195.837 164.49C170.483 164.49 150.602 156.473 150.602 146.252V122.14C150.602 121.528 151.088 121.038 151.696 121.038H239.856C240.464 121.038 240.95 121.528 240.95 122.14V146.252C241.072 156.473 221.19 164.49 195.837 164.49ZM152.851 123.302V146.252C152.851 154.882 172.55 162.226 195.837 162.226C219.123 162.226 238.822 154.882 238.822 146.252V123.302H152.851Z" fill="#093F68"/>
<path d="M195.837 139.276C220.182 139.276 239.917 131.631 239.917 122.201C239.917 112.771 220.182 105.126 195.837 105.126C171.492 105.126 151.757 112.771 151.757 122.201C151.757 131.631 171.492 139.276 195.837 139.276Z" fill="white"/>
<path d="M195.837 140.377C170.483 140.377 150.602 132.36 150.602 122.139C150.602 111.919 170.483 103.902 195.837 103.902C221.19 103.902 241.011 111.919 241.011 122.139C241.011 132.36 221.19 140.377 195.837 140.377ZM195.837 106.227C172.55 106.227 152.851 113.51 152.851 122.201C152.851 130.891 172.55 138.174 195.837 138.174C219.123 138.174 238.822 130.83 238.822 122.201C238.822 113.571 219.123 106.227 195.837 106.227Z" fill="#093F68"/>
<path d="M151.757 98.2104V122.323C151.757 131.748 171.517 139.398 195.837 139.398C220.157 139.398 239.917 131.748 239.917 122.323V98.2104H151.757Z" fill="white"/>
<path d="M195.837 140.5C170.483 140.5 150.602 132.483 150.602 122.262V98.1495C150.602 97.5375 151.088 97.0479 151.696 97.0479H239.856C240.464 97.0479 240.95 97.5375 240.95 98.1495V122.262C241.072 132.544 221.19 140.5 195.837 140.5ZM152.851 99.3122V122.262C152.851 130.891 172.55 138.235 195.837 138.235C219.123 138.235 238.822 130.891 238.822 122.262V99.3122H152.851Z" fill="#093F68"/>
<path d="M195.837 115.285C220.182 115.285 239.917 107.641 239.917 98.2105C239.917 88.7804 220.182 81.1357 195.837 81.1357C171.492 81.1357 151.757 88.7804 151.757 98.2105C151.757 107.641 171.492 115.285 195.837 115.285Z" fill="#093F68"/>
<path d="M195.837 116.448C170.483 116.448 150.602 108.431 150.602 98.2103C150.602 87.9899 170.483 79.9727 195.837 79.9727C221.19 79.9727 241.011 87.9899 241.011 98.2103C241.011 108.431 221.19 116.448 195.837 116.448ZM195.837 82.2983C172.55 82.2983 152.851 89.5811 152.851 98.2715C152.851 106.962 172.55 114.245 195.837 114.245C219.123 114.245 238.822 106.901 238.822 98.2715C238.822 89.6423 219.123 82.2371 195.837 82.2983Z" fill="#093F68"/>
<path d="M140.144 70.793V94.9058C140.144 104.331 159.904 111.981 184.224 111.981C208.544 111.981 228.304 104.331 228.304 94.9058V70.793H140.144Z" fill="white"/>
<path d="M184.224 113.143C158.87 113.143 139.05 105.126 139.05 94.9058V70.793C139.05 70.181 139.536 69.6914 140.144 69.6914H228.304C228.912 69.6914 229.398 70.181 229.398 70.793V94.9058C229.398 105.126 209.578 113.143 184.224 113.143ZM141.238 71.9558V94.967C141.238 103.596 160.938 110.94 184.224 110.94C207.51 110.94 227.21 103.596 227.21 94.967V71.9558H141.238Z" fill="#093F68"/>
<path d="M184.224 87.8674C208.568 87.8674 228.304 80.2227 228.304 70.7926C228.304 61.3624 208.568 53.7178 184.224 53.7178C159.879 53.7178 140.144 61.3624 140.144 70.7926C140.144 80.2227 159.879 87.8674 184.224 87.8674Z" fill="#093F68"/>
<path d="M184.224 89.0304C158.87 89.0304 139.05 81.0132 139.05 70.7928C139.05 60.5724 158.87 52.5552 184.224 52.5552C209.578 52.5552 229.398 60.5724 229.398 70.7928C229.398 81.0132 209.578 89.0304 184.224 89.0304ZM184.224 54.8196C160.938 54.8196 141.238 62.1024 141.238 70.7928C141.238 79.4832 160.938 86.766 184.224 86.766C207.51 86.766 227.21 79.422 227.21 70.7928C227.21 62.1636 207.51 54.8196 184.224 54.8196Z" fill="#093F68"/>
<path d="M148.656 45.5786V69.6914C148.656 79.1162 168.416 86.7662 192.736 86.7662C217.056 86.7662 236.816 79.1162 236.816 69.6914V45.5786H148.656Z" fill="white"/>
<path d="M192.736 87.8675C167.382 87.8675 147.562 79.8503 147.562 69.6299V45.5171C147.562 44.9051 148.048 44.4155 148.656 44.4155H236.816C237.424 44.4155 237.91 44.9051 237.91 45.5171V69.6299C237.91 79.9115 218.09 87.8675 192.736 87.8675ZM149.75 46.6799V69.6911C149.75 78.3203 169.45 85.6643 192.736 85.6643C216.022 85.6643 235.722 78.3815 235.722 69.6911V46.6799H149.75Z" fill="#093F68"/>
<path d="M192.736 62.653C217.081 62.653 236.816 55.0084 236.816 45.5782C236.816 36.1481 217.081 28.5034 192.736 28.5034C168.392 28.5034 148.656 36.1481 148.656 45.5782C148.656 55.0084 168.392 62.653 192.736 62.653Z" fill="white"/>
<path d="M192.736 63.816C167.382 63.816 147.562 55.7988 147.562 45.5784C147.562 35.358 167.382 27.3408 192.736 27.3408C218.09 27.3408 237.91 35.358 237.91 45.5784C237.91 55.7988 218.09 63.816 192.736 63.816ZM192.736 29.6664C169.45 29.6664 149.75 37.0104 149.75 45.6396C149.75 54.2688 169.45 61.6128 192.736 61.6128C216.022 61.6128 235.722 54.33 235.722 45.6396C235.722 36.9492 216.022 29.6052 192.736 29.6664Z" fill="#093F68"/>
<path d="M156.195 212.593C181.346 212.593 201.735 192.07 201.735 166.754C201.735 141.438 181.346 120.916 156.195 120.916C131.045 120.916 110.656 141.438 110.656 166.754C110.656 192.07 131.045 212.593 156.195 212.593Z" fill="white"/>
<path d="M156.195 213.695C130.416 213.695 109.562 192.642 109.562 166.754C109.562 140.867 130.477 119.814 156.195 119.814C181.974 119.814 202.829 140.806 202.829 166.754C202.829 192.642 181.914 213.695 156.195 213.695ZM156.195 122.017C131.693 122.017 111.811 142.091 111.811 166.754C111.811 191.418 131.754 211.43 156.256 211.43C180.758 211.43 200.64 191.418 200.64 166.754C200.64 142.03 180.698 122.017 156.195 122.017Z" fill="#093F68"/>
<path d="M156.196 205.555C134.916 205.555 117.648 188.174 117.648 166.754C117.648 145.334 134.916 127.954 156.196 127.954C177.476 127.954 194.743 145.334 194.743 166.754C194.743 188.174 177.476 205.494 156.196 205.555ZM156.196 130.157C136.132 130.157 119.898 146.558 119.898 166.754C119.898 186.95 136.192 203.291 156.256 203.291C176.32 203.291 192.554 186.889 192.554 166.754C192.493 146.558 176.26 130.218 156.196 130.157Z" fill="#093F68"/>
<path d="M56.4217 37.5C56.4217 37.5 56.8473 45.15 47.3625 47.7204C47.3625 47.7204 54.5369 47.598 56.7257 58.002C56.7257 58.002 57.5161 47.904 66.0889 46.9248C66.0889 46.9248 58.0633 47.598 56.4217 37.5Z" fill="white"/>
<path d="M56.7257 59.165C56.1785 59.165 55.7529 58.7978 55.6313 58.3082C53.6857 48.9446 47.5449 48.8834 47.4233 48.8834C46.8761 48.8834 46.3897 48.455 46.3289 47.9042C46.2681 47.3534 46.6329 46.8026 47.1193 46.6802C55.5705 44.4158 55.3273 37.8674 55.3273 37.5614C55.2665 36.9494 55.6921 36.3986 56.3001 36.3374C56.9081 36.2762 57.4553 36.7046 57.5161 37.3166C58.9753 46.2518 65.6633 45.8234 65.9673 45.8234C66.5753 45.7622 67.1225 46.2518 67.1225 46.8638C67.1833 47.4758 66.7577 47.9654 66.1497 48.0266C58.6713 48.8834 57.8201 57.7574 57.7593 58.1246C57.6985 58.6754 57.2729 59.1038 56.7257 59.165ZM50.9497 47.537C52.8345 48.455 55.0841 50.291 56.6041 53.8406C57.4553 51.515 58.9753 48.8222 61.7721 47.1698C59.4009 46.1294 57.5769 44.2322 56.5433 41.8454C55.3881 44.3546 53.4425 46.3742 50.9497 47.537Z" fill="#093F68"/>
<path d="M247.03 103.474C247.03 103.474 247.516 112.286 236.633 115.224C236.633 115.224 244.902 115.102 247.394 127.097C247.394 127.097 248.306 115.469 258.156 114.306C258.095 114.367 248.914 115.163 247.03 103.474Z" fill="white"/>
<path d="M247.333 128.26C246.786 128.26 246.361 127.892 246.239 127.342C243.929 116.387 236.693 116.326 236.572 116.387C236.025 116.387 235.538 115.958 235.477 115.408C235.417 114.857 235.781 114.306 236.268 114.184C246.117 111.491 245.874 103.902 245.874 103.535C245.874 102.923 246.361 102.372 246.969 102.372C247.516 102.372 248.002 102.739 248.124 103.29C249.826 113.816 257.669 113.204 258.034 113.204C258.642 113.143 259.189 113.633 259.25 114.245C259.311 114.857 258.885 115.346 258.277 115.469C249.522 116.509 248.549 126.791 248.489 127.219C248.428 127.77 248.002 128.198 247.455 128.26H247.333ZM240.341 115.102C242.591 116.142 245.388 118.284 247.212 122.752C247.455 122.017 247.759 121.344 248.063 120.671C249.218 118.1 251.103 116.02 253.535 114.612C250.617 113.388 248.306 111.062 247.151 108.125C245.813 111.246 243.381 113.694 240.341 115.102Z" fill="#093F68"/>
<path d="M201.368 42.5186C201.368 42.5186 201.855 51.3314 190.972 54.269C190.972 54.269 199.24 54.1466 201.733 66.1418C201.733 66.1418 202.645 54.5138 212.495 53.351C212.495 53.4122 203.253 54.2078 201.368 42.5186Z" fill="white"/>
<path d="M201.734 67.3046C201.186 67.3046 200.761 66.9374 200.639 66.4478C198.39 55.6154 191.215 55.4929 190.972 55.4929C190.364 55.4929 189.878 55.0034 189.878 54.3914C189.878 53.9018 190.243 53.4122 190.729 53.2898C200.579 50.6582 200.335 43.0081 200.335 42.6409C200.274 42.0289 200.7 41.4781 201.308 41.4169C201.916 41.3557 202.463 41.7842 202.524 42.3962C204.226 52.9226 212.07 52.3105 212.374 52.3105C212.982 52.2493 213.529 52.6777 213.59 53.3509C213.65 53.9629 213.225 54.5137 212.617 54.5749C203.862 55.6153 202.889 65.897 202.828 66.3254C202.767 66.8762 202.342 67.3046 201.794 67.3658L201.734 67.3046ZM194.681 54.1465C196.931 55.1869 199.727 57.3289 201.551 61.7965C201.794 61.0621 202.098 60.389 202.402 59.7158C203.558 57.1454 205.442 55.0645 207.874 53.6569C204.956 52.4329 202.646 50.1074 201.49 47.1698C200.214 50.291 197.782 52.8001 194.681 54.1465Z" fill="#093F68"/>
<path d="M125.551 15.4067C125.551 15.4067 126.038 24.2195 115.155 27.1571C115.155 27.1571 123.423 27.0347 125.916 39.0299C125.916 39.0299 126.828 27.4019 136.678 26.2391C136.617 26.3003 127.436 27.0959 125.551 15.4067Z" fill="white"/>
<path d="M125.855 40.1927C125.308 40.1927 124.882 39.8255 124.761 39.3359C122.511 28.5035 115.519 28.3811 115.154 28.3811C114.546 28.3811 114.06 27.8915 113.999 27.2795C113.999 26.7899 114.364 26.3003 114.85 26.1779C124.7 23.5463 124.457 15.8963 124.457 15.5291C124.396 14.9171 124.821 14.3663 125.429 14.3051C126.037 14.2439 126.585 14.6723 126.645 15.2843C128.348 25.8107 136.191 25.1987 136.495 25.1987C137.103 25.1375 137.65 25.5659 137.711 26.2391C137.772 26.8511 137.346 27.4019 136.738 27.4631C127.983 28.5035 127.01 38.7851 126.949 39.2135C126.889 39.7643 126.463 40.1927 125.916 40.2539H125.855V40.1927ZM118.802 27.0347C121.052 28.0751 123.849 30.2171 125.673 34.6847C125.916 33.9503 126.22 33.2771 126.524 32.6039C127.679 30.0335 129.564 27.9527 131.996 26.5451C129.077 25.3211 126.767 22.9955 125.612 20.0579C124.335 23.1791 121.903 25.6271 118.802 27.0347Z" fill="#093F68"/>
<path d="M170.181 149H141.817C136.602 149 133.296 154.625 135.92 159.173L153.426 189.514C154.568 191.495 157.431 191.495 158.573 189.514L176.082 159.173C178.702 154.633 175.397 149 170.185 149H170.181ZM153.411 180.415L149.599 173.037L140.4 156.585C139.793 155.532 140.543 154.183 141.813 154.183H153.408V180.419L153.411 180.415ZM171.591 156.582L162.396 173.041L158.584 180.415V154.179H170.178C171.449 154.179 172.198 155.529 171.591 156.582Z" fill="#093F68"/>
</svg>
