<svg width="48" height="48" viewBox="0 0 48 48" fill="none" xmlns="http://www.w3.org/2000/svg">
<path fill-rule="evenodd" clip-rule="evenodd" d="M23.9999 42.24C35.6641 42.24 45.1199 32.7843 45.1199 21.12C45.1199 9.45575 35.6641 0 23.9999 0C12.3356 0 2.87988 9.45575 2.87988 21.12C2.87988 27.6878 5.87777 33.5553 10.5798 37.4289C10.5873 37.4351 10.5806 37.4471 10.5714 37.444C10.5658 37.442 10.5599 37.4462 10.5599 37.4522V42.327C10.5599 44.9288 13.3023 46.6176 15.6257 45.4464L21.1308 42.6713C21.7942 42.3369 22.5374 42.2031 23.28 42.228C23.519 42.236 23.759 42.24 23.9999 42.24Z" fill="#30AD1C"/>
<path fill-rule="evenodd" clip-rule="evenodd" d="M30.9545 14.9825C31.6063 15.4822 31.7307 16.4152 31.2326 17.0682L23.8416 26.7588C23.581 27.1005 23.186 27.3129 22.7579 27.3414C22.3298 27.3698 21.9103 27.2117 21.6069 26.9076L16.9159 22.2041C16.3357 21.6224 16.3357 20.681 16.9159 20.0993C17.4982 19.5154 18.4439 19.5154 19.0262 20.0993L22.5097 23.592L28.8635 15.2613C29.3633 14.6059 30.3004 14.481 30.9545 14.9825Z" fill="white"/>
</svg>
