<svg width="100" height="100" viewBox="0 0 100 100" fill="none" xmlns="http://www.w3.org/2000/svg">
<g clip-path="url(#clip0_10702_7620)">
<path d="M50 100C77.6143 100 100 77.6143 100 50C100 22.3857 77.6143 0 50 0C22.3857 0 0 22.3857 0 50C0 77.6143 22.3857 100 50 100Z" fill="#232328"/>
<path d="M67.0712 27.9067H32.9253C26.6471 27.9067 22.6678 34.6791 25.8264 40.1539L46.9 76.6803C48.2752 79.0653 51.7214 79.0653 53.0966 76.6803L74.1744 40.1539C77.3287 34.6878 73.3494 27.9067 67.0755 27.9067H67.0712ZM46.8828 65.7266L42.2934 56.8442L31.2194 37.0383C30.4889 35.7707 31.3912 34.1462 32.9211 34.1462H46.8786V65.7308L46.8828 65.7266ZM68.7686 37.0341L57.6989 56.8485L53.1094 65.7266V34.1419H67.0669C68.5968 34.1419 69.4991 35.7664 68.7686 37.0341Z" fill="white"/>
</g>
<defs>
<clipPath id="clip0_10702_7620">
<rect width="100" height="100" fill="white"/>
</clipPath>
</defs>
</svg>
