<svg width="32" height="32" viewBox="0 0 32 32" fill="none" xmlns="http://www.w3.org/2000/svg">
<path d="M16.7571 9.00622C16.8563 9.00622 16.9547 9.00622 17.0523 9.00622C16.0875 9.93466 15.4674 11.1839 15.2997 12.5367C15.132 13.8896 15.4274 15.2605 16.1344 16.4112C16.8414 17.562 17.9154 18.4197 19.1697 18.8354C20.424 19.251 21.7793 19.1983 23 18.6864C22.5304 19.8566 21.763 20.8728 20.7795 21.6266C19.796 22.3805 18.6334 22.8437 17.4157 22.9669C16.1979 23.09 14.9708 22.8685 13.8651 22.326C12.7593 21.7834 11.8166 20.9402 11.1373 19.8862C10.458 18.8323 10.0677 17.6071 10.008 16.3414C9.94837 15.0757 10.2215 13.817 10.7984 12.6995C11.3753 11.582 12.2343 10.6477 13.2837 9.99613C14.3331 9.34459 15.5336 9.00031 16.7571 9V9.00622Z" stroke="#0B0B0B" stroke-width="1.25" stroke-linecap="round" stroke-linejoin="round"/>
</svg>
