<svg width="16" height="16" viewBox="0 0 16 16" fill="none" xmlns="http://www.w3.org/2000/svg">
<path d="M7.99998 1.3335L8.42799 1.33683L8.83865 1.34816L9.03798 1.35683L9.42398 1.3795L9.79265 1.41016C12.9173 1.7135 14.226 2.9655 14.57 6.01416L14.59 6.2075L14.6207 6.57616L14.648 7.06083L14.652 7.16083L14.6633 7.57216L14.6667 8.00016L14.6633 8.42816L14.652 8.83883L14.6433 9.03816L14.6207 9.42416L14.59 9.79283C14.2867 12.9175 13.0347 14.2262 9.98598 14.5702L9.79265 14.5902L9.42398 14.6208L8.93932 14.6482L8.83932 14.6522L8.42799 14.6635L7.99998 14.6668L7.57198 14.6635L7.16132 14.6522L6.96198 14.6435L6.57598 14.6208L6.20732 14.5902C3.08265 14.2868 1.77398 13.0348 1.42998 9.98616L1.40998 9.79283L1.37932 9.42416L1.35198 8.9395L1.34798 8.8395L1.33665 8.42816L1.33398 8.21616V7.78416L1.33665 7.57216L1.34798 7.1615L1.35665 6.96216L1.37932 6.57616L1.40998 6.2075C1.71332 3.08283 2.96532 1.77416 6.01398 1.43016L6.20732 1.41016L6.57598 1.3795L7.06065 1.35216L7.16065 1.34816L7.57198 1.33683C7.71198 1.33483 7.85465 1.3335 7.99998 1.3335ZM7.99998 7.3335H7.33332L7.25532 7.33816C7.09329 7.35744 6.94395 7.43547 6.83559 7.55747C6.72724 7.67948 6.66739 7.83699 6.66739 8.00016C6.66739 8.16334 6.72724 8.32085 6.83559 8.44285C6.94395 8.56486 7.09329 8.64289 7.25532 8.66216L7.33332 8.66683V10.6668L7.33799 10.7448C7.35553 10.8936 7.4227 11.0322 7.52866 11.1382C7.63461 11.2441 7.77317 11.3113 7.92198 11.3288L7.99998 11.3335H8.66665L8.74465 11.3288C8.89346 11.3113 9.03202 11.2441 9.13798 11.1382C9.24393 11.0322 9.3111 10.8936 9.32865 10.7448L9.33332 10.6668L9.32865 10.5888C9.31271 10.4528 9.25528 10.325 9.16415 10.2228C9.07302 10.1206 8.95262 10.0489 8.81932 10.0175L8.74465 10.0042L8.66665 10.0002V8.00016L8.66198 7.92216C8.64444 7.77335 8.57726 7.63479 8.47131 7.52884C8.36536 7.42288 8.2268 7.35571 8.07798 7.33816L7.99998 7.3335ZM8.00665 5.3335L7.92198 5.33816C7.75995 5.35744 7.61061 5.43547 7.50226 5.55747C7.39391 5.67948 7.33406 5.83699 7.33406 6.00016C7.33406 6.16334 7.39391 6.32085 7.50226 6.44285C7.61061 6.56486 7.75995 6.64289 7.92198 6.66216L7.99998 6.66683L8.08465 6.66216C8.24668 6.64289 8.39602 6.56486 8.50438 6.44285C8.61273 6.32085 8.67257 6.16334 8.67257 6.00016C8.67257 5.83699 8.61273 5.67948 8.50438 5.55747C8.39602 5.43547 8.24668 5.35744 8.08465 5.33816L8.00665 5.3335Z" fill="#626278"/>
</svg>
