<svg width="32" height="32" viewBox="0 0 32 32" fill="none" xmlns="http://www.w3.org/2000/svg">
<path d="M12.667 15.9998C12.667 16.8839 13.0182 17.7317 13.6433 18.3569C14.2684 18.982 15.1163 19.3332 16.0003 19.3332C16.8844 19.3332 17.7322 18.982 18.3573 18.3569C18.9825 17.7317 19.3337 16.8839 19.3337 15.9998C19.3337 15.1158 18.9825 14.2679 18.3573 13.6428C17.7322 13.0177 16.8844 12.6665 16.0003 12.6665C15.1163 12.6665 14.2684 13.0177 13.6433 13.6428C13.0182 14.2679 12.667 15.1158 12.667 15.9998Z" stroke="white" stroke-width="1.25" stroke-linecap="round" stroke-linejoin="round"/>
<path d="M8.5 16H9.33333M16 8.5V9.33333M22.6667 16H23.5M16 22.6667V23.5M10.6667 10.6667L11.25 11.25M21.3333 10.6667L20.75 11.25M20.75 20.75L21.3333 21.3333M11.25 20.75L10.6667 21.3333" stroke="white" stroke-width="1.25" stroke-linecap="round" stroke-linejoin="round"/>
</svg>
