<svg width="32" height="32" viewBox="0 0 32 32" fill="none" xmlns="http://www.w3.org/2000/svg">
<path d="M15.9993 2.6665L16.4313 2.66784L16.8553 2.67317L17.6767 2.69584L18.0753 2.71317L18.8473 2.7585L19.5847 2.81984C25.9647 3.4385 28.5607 6.0345 29.1793 12.4145L29.2407 13.1518L29.286 13.9238C29.2927 14.0545 29.2993 14.1878 29.3033 14.3225L29.326 15.1438L29.3327 15.9998L29.326 16.8558L29.3033 17.6772L29.286 18.0758L29.2407 18.8478L29.1793 19.5852C28.5607 25.9652 25.9647 28.5612 19.5847 29.1798L18.8473 29.2412L18.0753 29.2865C17.9447 29.2932 17.8113 29.2998 17.6767 29.3038L16.8553 29.3265L15.9993 29.3332L15.1433 29.3265L14.322 29.3038L13.9233 29.2865L13.1513 29.2412L12.414 29.1798C6.03402 28.5612 3.43802 25.9652 2.81935 19.5852L2.75802 18.8478L2.71268 18.0758C2.7062 17.943 2.70042 17.8101 2.69535 17.6772L2.67268 16.8558C2.66868 16.5758 2.66602 16.2905 2.66602 15.9998L2.66735 15.5678L2.67268 15.1438L2.69535 14.3225L2.71268 13.9238L2.75802 13.1518L2.81935 12.4145C3.43802 6.0345 6.03402 3.4385 12.414 2.81984L13.1513 2.7585L13.9233 2.71317C14.054 2.7065 14.1873 2.69984 14.322 2.69584L15.1433 2.67317C15.4233 2.66917 15.7087 2.6665 15.9993 2.6665ZM15.9993 10.6665C15.6457 10.6665 15.3066 10.807 15.0565 11.057C14.8065 11.3071 14.666 11.6462 14.666 11.9998V14.6665H11.9993L11.8433 14.6758C11.5059 14.716 11.1965 14.8835 10.9784 15.1441C10.7602 15.4047 10.6499 15.7387 10.6698 16.078C10.6897 16.4172 10.8384 16.7361 11.0855 16.9694C11.3326 17.2027 11.6595 17.3328 11.9993 17.3332H14.666V19.9998L14.6753 20.1558C14.7155 20.4933 14.883 20.8027 15.1436 21.0208C15.4042 21.2389 15.7382 21.3493 16.0775 21.3294C16.4167 21.3095 16.7356 21.1608 16.9689 20.9137C17.2022 20.6665 17.3323 20.3397 17.3327 19.9998V17.3332H19.9993L20.1553 17.3238C20.4928 17.2837 20.8022 17.1162 21.0203 16.8556C21.2384 16.595 21.3488 16.261 21.3289 15.9217C21.309 15.5824 21.1603 15.2636 20.9132 15.0303C20.6661 14.797 20.3392 14.6669 19.9993 14.6665H17.3327V11.9998L17.3233 11.8438C17.2851 11.5195 17.1292 11.2205 16.8852 11.0035C16.6411 10.7864 16.3259 10.6665 15.9993 10.6665Z" fill="white" stroke="#D8D8E1" stroke-linecap="round" stroke-linejoin="round"/>
</svg>
