<svg width="32" height="32" viewBox="0 0 32 32" fill="none" xmlns="http://www.w3.org/2000/svg">
<path d="M22.9414 16.9111C22.7762 18.1711 22.2711 19.3623 21.4803 20.357C20.6896 21.3517 19.6429 22.1124 18.4527 22.5575C17.2624 23.0026 15.9735 23.1153 14.7241 22.8835C13.4747 22.6517 12.3119 22.0841 11.3605 21.2417C10.4091 20.3993 9.70499 19.3139 9.32364 18.1017C8.94228 16.8895 8.89808 15.5964 9.19578 14.361C9.49349 13.1257 10.1219 11.9946 11.0135 11.0892C11.9052 10.1839 13.0265 9.53826 14.2571 9.2217C17.6687 8.34671 21.2002 10.1028 22.5039 13.3753" stroke="white" stroke-width="1.5" stroke-linecap="round" stroke-linejoin="round"/>
<path d="M23 9V13.375H18.625" stroke="white" stroke-width="1.5" stroke-linecap="round" stroke-linejoin="round"/>
</svg>
