<svg width="32" height="32" viewBox="0 0 32 32" fill="none" xmlns="http://www.w3.org/2000/svg">
<path d="M16 10.4998C16 10.9861 16.1932 11.4524 16.537 11.7962C16.8808 12.14 17.3471 12.3332 17.8333 12.3332C18.3196 12.3332 18.7859 12.14 19.1297 11.7962C19.4735 11.4524 19.6667 10.9861 19.6667 10.4998C19.6667 10.0136 19.4735 9.54729 19.1297 9.20347C18.7859 8.85966 18.3196 8.6665 17.8333 8.6665C17.3471 8.6665 16.8808 8.85966 16.537 9.20347C16.1932 9.54729 16 10.0136 16 10.4998Z" stroke="#0B0B0B" stroke-width="1.5" stroke-linecap="round" stroke-linejoin="round"/>
<path d="M8.66699 10.5H16.0003" stroke="#0B0B0B" stroke-width="1.5" stroke-linecap="round" stroke-linejoin="round"/>
<path d="M19.667 10.5H23.3337" stroke="#0B0B0B" stroke-width="1.5" stroke-linecap="round" stroke-linejoin="round"/>
<path d="M10.5 15.9998C10.5 16.4861 10.6932 16.9524 11.037 17.2962C11.3808 17.64 11.8471 17.8332 12.3333 17.8332C12.8196 17.8332 13.2859 17.64 13.6297 17.2962C13.9735 16.9524 14.1667 16.4861 14.1667 15.9998C14.1667 15.5136 13.9735 15.0473 13.6297 14.7035C13.2859 14.3597 12.8196 14.1665 12.3333 14.1665C11.8471 14.1665 11.3808 14.3597 11.037 14.7035C10.6932 15.0473 10.5 15.5136 10.5 15.9998Z" stroke="#0B0B0B" stroke-width="1.5" stroke-linecap="round" stroke-linejoin="round"/>
<path d="M8.66699 16H10.5003" stroke="#0B0B0B" stroke-width="1.5" stroke-linecap="round" stroke-linejoin="round"/>
<path d="M14.167 16H23.3337" stroke="#0B0B0B" stroke-width="1.5" stroke-linecap="round" stroke-linejoin="round"/>
<path d="M18.75 21.4998C18.75 21.9861 18.9432 22.4524 19.287 22.7962C19.6308 23.14 20.0971 23.3332 20.5833 23.3332C21.0696 23.3332 21.5359 23.14 21.8797 22.7962C22.2235 22.4524 22.4167 21.9861 22.4167 21.4998C22.4167 21.0136 22.2235 20.5473 21.8797 20.2035C21.5359 19.8597 21.0696 19.6665 20.5833 19.6665C20.0971 19.6665 19.6308 19.8597 19.287 20.2035C18.9432 20.5473 18.75 21.0136 18.75 21.4998Z" stroke="#0B0B0B" stroke-width="1.5" stroke-linecap="round" stroke-linejoin="round"/>
<path d="M8.66699 21.5H18.7503" stroke="#0B0B0B" stroke-width="1.5" stroke-linecap="round" stroke-linejoin="round"/>
<path d="M22.417 21.5H23.3337" stroke="#0B0B0B" stroke-width="1.5" stroke-linecap="round" stroke-linejoin="round"/>
</svg>
