<svg width="28" height="28" viewBox="0 0 28 28" fill="none" xmlns="http://www.w3.org/2000/svg">
<path d="M0.5 8C0.5 3.85786 3.85786 0.5 8 0.5H20C24.1421 0.5 27.5 3.85786 27.5 8V20C27.5 24.1421 24.1421 27.5 20 27.5H8C3.85786 27.5 0.5 24.1421 0.5 20V8Z" fill="white"/>
<path d="M0.5 8C0.5 3.85786 3.85786 0.5 8 0.5H20C24.1421 0.5 27.5 3.85786 27.5 8V20C27.5 24.1421 24.1421 27.5 20 27.5H8C3.85786 27.5 0.5 24.1421 0.5 20V8Z" stroke="#EFEFF5"/>
<path d="M7.50146 13.9997L14.0001 6.5332L10.6816 13.9997H7.50146Z" fill="#89B8FE"/>
<path d="M7.50146 13.9998L14.0001 21.4663L10.6816 13.9998H7.50146Z" fill="#4586EC"/>
<path d="M20.4985 13.9997L13.9999 6.5332L17.3184 13.9997H20.4985Z" fill="#213CD1"/>
<path d="M20.4985 13.9998L13.9999 21.4663L17.3184 13.9998H20.4985Z" fill="#0F1C9C"/>
<path d="M10.6816 13.9997L14.0001 6.5332V13.9997H10.6816Z" fill="#4577F4"/>
<path d="M10.6816 13.9998L14.0001 21.4663V13.9998H10.6816Z" fill="#2E60DD"/>
<path d="M17.3184 13.9997L13.9999 6.5332V13.9997H17.3184Z" fill="#3246F5"/>
<path d="M17.3184 13.9998L13.9999 21.4663V13.9998H17.3184Z" fill="#1E2DC6"/>
</svg>
