<svg width="16" height="16" viewBox="0 0 16 16" fill="none" xmlns="http://www.w3.org/2000/svg">
<path d="M11.3337 5.33317V3.33317C11.3337 3.15636 11.2634 2.98679 11.1384 2.86177C11.0134 2.73674 10.8438 2.6665 10.667 2.6665H4.00033C3.6467 2.6665 3.30756 2.80698 3.05752 3.05703C2.80747 3.30708 2.66699 3.64622 2.66699 3.99984M2.66699 3.99984C2.66699 4.35346 2.80747 4.6926 3.05752 4.94265C3.30756 5.19269 3.6467 5.33317 4.00033 5.33317H12.0003C12.1771 5.33317 12.3467 5.40341 12.4717 5.52843C12.5968 5.65346 12.667 5.82303 12.667 5.99984V7.99984M2.66699 3.99984V11.9998C2.66699 12.3535 2.80747 12.6926 3.05752 12.9426C3.30756 13.1927 3.6467 13.3332 4.00033 13.3332H12.0003C12.1771 13.3332 12.3467 13.2629 12.4717 13.1379C12.5968 13.0129 12.667 12.8433 12.667 12.6665V10.6665" stroke="#44A3DD" stroke-linecap="round" stroke-linejoin="round"/>
<path d="M13.333 8V10.6667H10.6663C10.3127 10.6667 9.97358 10.5262 9.72353 10.2761C9.47348 10.0261 9.33301 9.68696 9.33301 9.33333C9.33301 8.97971 9.47348 8.64057 9.72353 8.39052C9.97358 8.14048 10.3127 8 10.6663 8H13.333Z" stroke="#44A3DD" stroke-linecap="round" stroke-linejoin="round"/>
</svg>
